<svg width="0" height="0" class="hidden">
    <symbol xmlns="http://www.w3.org/2000/svg" id="menu" class="h-6 w-6" fill="none" viewBox="0 0 24 24" stroke="currentColor" stroke-width="2">
        <path stroke-linecap="round" stroke-linejoin="round" d="M4 6h16M4 12h16M4 18h16" />
    </symbol>
    <symbol xmlns="http://www.w3.org/2000/svg" id="mail" class="h-6 w-6" fill="none" viewBox="0 0 24 24" stroke="currentColor" stroke-width="2">
        <path stroke-linecap="round" stroke-linejoin="round" d="M3 8l7.89 5.26a2 2 0 002.22 0L21 8M5 19h14a2 2 0 002-2V7a2 2 0 00-2-2H5a2 2 0 00-2 2v10a2 2 0 002 2z" />
    </symbol>
    <symbol xmlns="http://www.w3.org/2000/svg" id="link" class="h-6 w-6" fill="none" viewBox="0 0 24 24" stroke="currentColor" stroke-width="2">
        <path stroke-linecap="round" stroke-linejoin="round" d="M13.828 10.172a4 4 0 00-5.656 0l-4 4a4 4 0 105.656 5.656l1.102-1.101m-.758-4.899a4 4 0 005.656 0l4-4a4 4 0 00-5.656-5.656l-1.1 1.1" />
    </symbol>
    <symbol xmlns="http://www.w3.org/2000/svg" id="double-right" class="h-6 w-6" fill="none" viewBox="0 0 24 24" stroke="currentColor" stroke-width="2">
        <path stroke-linecap="round" stroke-linejoin="round" d="M13 5l7 7-7 7M5 5l7 7-7 7" />
    </symbol>
    <symbol xmlns="http://www.w3.org/2000/svg" id="chevron-left" class="h-6 w-6" fill="none" viewBox="0 0 24 24" stroke="currentColor" stroke-width="2">
        <path stroke-linecap="round" stroke-linejoin="round" d="M15 19l-7-7 7-7" />
    </symbol>
    <symbol xmlns="http://www.w3.org/2000/svg" id="chevron-right" class="h-6 w-6" fill="none" viewBox="0 0 24 24" stroke="currentColor" stroke-width="2">
        <path stroke-linecap="round" stroke-linejoin="round" d="M9 5l7 7-7 7" />
    </symbol>
    <symbol xmlns="http://www.w3.org/2000/svg" id="power" fill="none" viewBox="0 0 256 256">
        <rect width="256" height="256" fill="none"></rect>
        <line x1="128" y1="48" x2="128" y2="124" fill="none" stroke="currentColor" stroke-linecap="round" stroke-linejoin="round" stroke-width="16"></line>
        <path d="M176,54.2a88,88,0,1,1-96,0" fill="none" stroke="currentColor" stroke-linecap="round" stroke-linejoin="round" stroke-width="16"></path>
    </symbol>
    <symbol xmlns="http://www.w3.org/2000/svg" id="check" class="h-6 w-6" fill="none" viewBox="0 0 24 24" stroke="currentColor" stroke-width="2">
        <path stroke-linecap="round" stroke-linejoin="round" d="M5 13l4 4L19 7" />
    </symbol>
    <symbol xmlns="http://www.w3.org/2000/svg" id="x" class="h-6 w-6" fill="none" viewBox="0 0 24 24" stroke="currentColor" stroke-width="2">
        <path stroke-linecap="round" stroke-linejoin="round" d="M6 18L18 6M6 6l12 12" />
    </symbol>
    <symbol xmlns="http://www.w3.org/2000/svg" id="user" class="h-6 w-6" fill="none" viewBox="0 0 24 24" stroke="currentColor" stroke-width="2">
        <path stroke-linecap="round" stroke-linejoin="round" d="M16 7a4 4 0 11-8 0 4 4 0 018 0zM12 14a7 7 0 00-7 7h14a7 7 0 00-7-7z" />
    </symbol>
</svg>