<svg width="0" height="0" class="hidden">
  <symbol fill="none" xmlns="http://www.w3.org/2000/svg" viewBox="0 0 21 27" id="menu">
    <path d="M6.21785 0.920878V6.38606C6.21785 7.85033 4.55201 7.71808 4.55201 6.51829V2.48854C4.55201 1.55324 4.28809 0 3.82563 0C3.36317 0 3.09925 1.55324 3.09925 2.48854V6.51829C3.09925 7.72049 1.43583 7.85033 1.43583 6.38606V0.920878C0.116234 1.45465 0 5.27282 0 7.91044C0 10.6683 1.54962 11.7142 2.90553 11.7142C2.90553 11.7142 1.71671 19.7857 1.71671 22.5844C1.71671 25.3831 2.707 26.4483 3.82805 26.4483C4.94911 26.4483 5.93698 25.3807 5.93698 22.5844C5.93698 19.7881 4.75055 11.7142 4.75055 11.7142C6.10404 11.7142 7.65608 10.6683 7.65608 7.91044C7.65124 5.27282 7.53503 1.45465 6.21785 0.920878Z" fill="#254359"></path>
    <path d="M20.1832 5.93162C20.1419 2.87084 17.8635 0 16.0082 0C14.1528 0 11.8744 2.87084 11.8331 5.93162C11.7674 10.8462 15.0817 10.4879 15.0817 11.7142C15.0817 11.7142 13.8878 19.7857 13.8878 22.5844C13.8878 25.3831 14.8823 26.4483 16.0082 26.4483C17.134 26.4483 18.1261 25.3807 18.1261 22.5844C18.1261 19.7881 16.9346 11.7142 16.9346 11.7142C16.9346 10.4879 20.2489 10.8462 20.1832 5.93162Z" fill="#254359"></path>
  </symbol>
  <symbol fill="none" xmlns="http://www.w3.org/2000/svg" viewBox="0 0 24 25" id="home">
    <path d="M22.5445 9.94582H0.651574C0.479638 9.94864 0.315529 10.019 0.193936 10.1419C0.0723435 10.2649 0.00279625 10.4309 0 10.6047V23.368C0.00279625 23.5419 0.0723435 23.7078 0.193936 23.8308C0.315529 23.9538 0.479638 24.0241 0.651574 24.0269H8.42703C8.59896 24.0241 8.76307 23.9538 8.88467 23.8308C9.00626 23.7078 9.0758 23.5419 9.0786 23.368V15.8519C9.0786 15.718 9.37615 15.6081 9.73017 15.6081H13.4224C13.7873 15.6081 14.0849 15.718 14.0849 15.8519V23.3768C14.0877 23.5507 14.1572 23.7166 14.2788 23.8396C14.4004 23.9626 14.5645 24.0329 14.7364 24.0357H22.5445C22.7183 24.0357 22.8852 23.9667 23.0091 23.8434C23.133 23.7201 23.204 23.5526 23.2069 23.3768V10.6135C23.2063 10.4362 23.1363 10.2664 23.0121 10.1412C22.8879 10.0161 22.7198 9.94582 22.5445 9.94582ZM4.73477 18.8918C4.73137 19.0673 4.66014 19.2346 4.53634 19.3577C4.41254 19.4809 4.246 19.5501 4.07234 19.5507H3.12756C2.9539 19.5501 2.78736 19.4809 2.66355 19.3577C2.53975 19.2346 2.46852 19.0673 2.46512 18.8918V17.5058C2.46797 17.3301 2.53902 17.1625 2.66294 17.0392C2.78687 16.9159 2.95373 16.8469 3.12756 16.8469H4.0832C4.25702 16.8469 4.42389 16.9159 4.54781 17.0392C4.67173 17.1625 4.74278 17.3301 4.74563 17.5058L4.73477 18.8918ZM4.73477 15.4236C4.73137 15.5992 4.66014 15.7665 4.53634 15.8896C4.41254 16.0128 4.246 16.082 4.07234 16.0826H3.12756C2.9539 16.082 2.78736 16.0128 2.66355 15.8896C2.53975 15.7665 2.46852 15.5992 2.46512 15.4236V14.1475C2.46797 13.9718 2.53902 13.8042 2.66294 13.6809C2.78687 13.5577 2.95373 13.4886 3.12756 13.4886H4.0832C4.25702 13.4886 4.42389 13.5577 4.54781 13.6809C4.67173 13.8042 4.74278 13.9718 4.74563 14.1475L4.73477 15.4236ZM7.7407 18.8918C7.7379 19.0656 7.66836 19.2316 7.54677 19.3545C7.42517 19.4775 7.26106 19.5478 7.08913 19.5507H6.14217C5.97024 19.5478 5.80613 19.4775 5.68453 19.3545C5.56294 19.2316 5.4934 19.0656 5.4906 18.8918V17.5058C5.4934 17.3319 5.56294 17.166 5.68453 17.043C5.80613 16.9201 5.97024 16.8497 6.14217 16.8469H7.08913C7.26106 16.8497 7.42517 16.9201 7.54677 17.043C7.66836 17.166 7.7379 17.3319 7.7407 17.5058V18.8918ZM7.7407 15.4236C7.7379 15.5975 7.66836 15.7635 7.54677 15.8864C7.42517 16.0094 7.26106 16.0797 7.08913 16.0826H6.14217C5.97024 16.0797 5.80613 16.0094 5.68453 15.8864C5.56294 15.7635 5.4934 15.5975 5.4906 15.4236V14.1475C5.4934 13.9737 5.56294 13.8077 5.68453 13.6847C5.80613 13.5618 5.97024 13.4914 6.14217 13.4886H7.08913C7.26106 13.4914 7.42517 13.5618 7.54677 13.6847C7.66836 13.8077 7.7379 13.9737 7.7407 14.1475V15.4236ZM17.7141 18.8918C17.7113 19.0656 17.6418 19.2316 17.5202 19.3545C17.3986 19.4775 17.2345 19.5478 17.0626 19.5507H16.1156C15.9437 19.5478 15.7796 19.4775 15.658 19.3545C15.5364 19.2316 15.4668 19.0656 15.464 18.8918V17.5058C15.4668 17.3319 15.5364 17.166 15.658 17.043C15.7796 16.9201 15.9437 16.8497 16.1156 16.8469H17.0626C17.2345 16.8497 17.3986 16.9201 17.5202 17.043C17.6418 17.166 17.7113 17.3319 17.7141 17.5058V18.8918ZM17.7141 15.4236C17.7113 15.5975 17.6418 15.7635 17.5202 15.8864C17.3986 16.0094 17.2345 16.0797 17.0626 16.0826H16.1156C15.9437 16.0797 15.7796 16.0094 15.658 15.8864C15.5364 15.7635 15.4668 15.5975 15.464 15.4236V14.1475C15.4668 13.9737 15.5364 13.8077 15.658 13.6847C15.7796 13.5618 15.9437 13.4914 16.1156 13.4886H17.0626C17.2345 13.4914 17.3986 13.5618 17.5202 13.6847C17.6418 13.8077 17.7113 13.9737 17.7141 14.1475V15.4236ZM20.7222 18.8918C20.7194 19.0656 20.6499 19.2316 20.5283 19.3545C20.4067 19.4775 20.2426 19.5478 20.0707 19.5507H19.1237C18.9519 19.5473 18.7881 19.4768 18.6667 19.3539C18.5452 19.2311 18.4755 19.0655 18.4721 18.8918V17.5058C18.4755 17.3321 18.5452 17.1665 18.6667 17.0436C18.7881 16.9208 18.9519 16.8503 19.1237 16.8469H20.0707C20.2426 16.8497 20.4067 16.9201 20.5283 17.043C20.6499 17.166 20.7194 17.3319 20.7222 17.5058V18.8918ZM20.7222 15.4236C20.7194 15.5975 20.6499 15.7635 20.5283 15.8864C20.4067 16.0094 20.2426 16.0797 20.0707 16.0826H19.1237C18.9519 16.0792 18.7881 16.0087 18.6667 15.8858C18.5452 15.763 18.4755 15.5973 18.4721 15.4236V14.1475C18.4755 13.9738 18.5452 13.8082 18.6667 13.6853C18.7881 13.5625 18.9519 13.492 19.1237 13.4886H20.0707C20.2426 13.4914 20.4067 13.5618 20.5283 13.6847C20.6499 13.8077 20.7194 13.9737 20.7222 14.1475V15.4236Z" fill="#254359"></path>
    <path d="M0.327414 9.117H22.874C23.2498 9.117 23.3214 8.9289 23.0172 8.69547L12.1375 0.174322C11.9801 0.0609251 11.7917 0 11.5985 0C11.4053 0 11.2169 0.0609251 11.0594 0.174322L6.50088 3.73915C6.42357 3.80975 6.32512 3.85204 6.22129 3.85927C6.06695 3.85927 5.96183 3.72102 5.96183 3.47173V0.715958C5.95895 0.536554 5.88732 0.365314 5.7621 0.238439C5.63687 0.111564 5.46787 0.0389972 5.2908 0.0360795H3.30455C3.12554 0.0360551 2.95369 0.107322 2.82606 0.234508C2.69844 0.361694 2.62527 0.534609 2.62233 0.715958V6.0938C2.61079 6.30588 2.55732 6.51346 2.46511 6.70421C2.3729 6.89496 2.24381 7.06501 2.08551 7.20427L0.193211 8.68414C-0.110989 8.91756 -0.048362 9.117 0.327414 9.117Z" fill="#254359"></path>
  </symbol>
  <symbol fill="none" xmlns="http://www.w3.org/2000/svg" viewBox="0 0 25 29" id="partnership">
    <path d="M6.95792 11.4704C8.28556 14.6245 10.8129 16.3307 12.5013 16.3307C14.1896 16.3307 16.4688 14.691 17.8246 11.5676C18.1787 10.7072 18.4485 9.81452 18.6304 8.90208C18.8802 7.94385 18.9948 6.95538 18.9706 5.96542C18.9706 2.72946 16.0749 0 12.5013 0C8.92763 0 6.0319 2.72946 6.0319 5.96542C6.02454 6.69891 6.07415 7.43186 6.18028 8.15768C6.29268 9.2913 6.55414 10.4052 6.95792 11.4704Z" fill="#254359"></path>
    <path d="M23.941 20.6897C22.6491 19.3057 19.0116 19.6536 17.2132 18.702C16.4151 20.1985 16.4049 22.6543 15.0773 22.6543C15.0182 22.6536 14.9593 22.6494 14.9008 22.6415C12.9003 22.3396 13.9108 17.2491 12.5013 17.2491C11.0918 17.2491 12.0997 22.3473 10.1018 22.6491C10.0424 22.657 9.98264 22.6613 9.92274 22.6619C8.59766 22.6619 8.58488 20.2062 7.78676 18.7097C5.99611 19.6613 2.35343 19.3134 1.06417 20.6973C0.363254 21.4468 0 26.0846 0 28.1464H25C25 26.077 24.6393 21.4392 23.941 20.6897Z" fill="#254359"></path>
  </symbol>
  <symbol fill="none" xmlns="http://www.w3.org/2000/svg" viewBox="0 0 26 23" id="career">
    <path d="M8.58943 4.06054H9.20207C9.50316 4.06054 9.75825 3.92464 9.75825 3.76154V2.08882C9.75875 1.99281 9.79655 1.90076 9.86365 1.83209C9.93076 1.76343 10.0219 1.72353 10.1179 1.72082H15.4685C15.5652 1.7219 15.6577 1.7608 15.7261 1.82919C15.7944 1.89758 15.8333 1.99002 15.8344 2.08673V3.77618C15.8344 3.92673 16.0937 4.05636 16.3885 4.05636H17.0179C17.3148 4.05636 17.5741 3.92673 17.5741 3.77618V2.09091C17.5741 1.53637 17.3538 1.00453 16.9617 0.612413C16.5695 0.220292 16.0377 0 15.4832 0H10.1179C9.56334 0 9.03151 0.220292 8.63939 0.612413C8.24727 1.00453 8.02698 1.53637 8.02698 2.09091V3.73436C8.02698 3.91209 8.28834 4.06054 8.58943 4.06054Z" fill="#254359"></path>
    <path d="M13.6432 14.1785H11.9537C11.6466 14.1785 11.3976 14.4275 11.3976 14.7346V15.364C11.3976 15.6712 11.6466 15.9202 11.9537 15.9202H13.6432C13.9504 15.9202 14.1994 15.6712 14.1994 15.364V14.7346C14.1994 14.4275 13.9504 14.1785 13.6432 14.1785Z" fill="#254359"></path>
    <path d="M13.6432 16.8799H11.9537C11.6466 16.8799 11.3976 17.1289 11.3976 17.4361V18.2683C11.3976 18.5754 11.6466 18.8245 11.9537 18.8245H13.6432C13.9504 18.8245 14.1994 18.5754 14.1994 18.2683V17.4361C14.1994 17.1289 13.9504 16.8799 13.6432 16.8799Z" fill="#254359"></path>
    <path d="M24.1667 14.9291C24.0162 14.9855 23.8845 15.0315 23.7611 15.0734C20.9555 16.0284 18.034 16.6009 15.0755 16.7754V17.8522C15.0749 18.3056 14.8945 18.7404 14.5739 19.061C14.2533 19.3816 13.8185 19.562 13.3651 19.5626H12.2339C11.7805 19.562 11.3457 19.3816 11.0251 19.061C10.7045 18.7404 10.5241 18.3056 10.5235 17.8522V16.7754C7.34289 16.5934 4.20602 15.9467 1.21273 14.8559C1.13118 14.8329 0.978543 14.7744 0.614725 14.628L0.568726 14.6092L0.499725 14.5799V21.5991C0.500278 21.9705 0.648051 22.3265 0.910653 22.5891C1.17325 22.8517 1.52926 22.9995 1.90063 23H23.69C24.0614 22.9995 24.4174 22.8517 24.68 22.5891C24.9426 22.3265 25.0904 21.9705 25.0909 21.5991V14.5695L24.7773 14.6949L24.1667 14.9291Z" fill="#254359"></path>
    <path d="M24.2399 5.11855H1.35909C0.998807 5.1191 0.653438 5.26247 0.398679 5.51722C0.14392 5.77198 0.000553007 6.11735 0 6.47764V12.5413C0.0110884 12.6271 0.041496 12.7094 0.0889377 12.7818C0.136379 12.8542 0.19962 12.915 0.273909 12.9595C0.273909 12.9595 0.524818 13.0682 0.926273 13.2292C3.99923 14.419 7.2383 15.1243 10.5277 15.3201V14.2997C10.5277 13.6223 11.5481 13.1623 12.2339 13.1623H13.3651C14.1617 13.1623 15.0713 13.685 15.0525 14.4795V15.3159C17.9114 15.1454 20.7348 14.5934 23.4475 13.6745C24.2734 13.3902 25.3167 12.9469 25.3293 12.9406C25.4044 12.8974 25.4683 12.837 25.5155 12.7643C25.5628 12.6916 25.5921 12.6087 25.6011 12.5225V6.45882C25.5956 6.10145 25.4498 5.76057 25.1951 5.50981C24.9404 5.25904 24.5973 5.1185 24.2399 5.11855Z" fill="#254359"></path>
  </symbol>
  <symbol fill="none" xmlns="http://www.w3.org/2000/svg" viewBox="0 0 33 24" id="cart">
    <path d="M12.28 19.2184C12.3071 19.3012 12.3596 19.3734 12.43 19.4247C12.5005 19.476 12.5853 19.5037 12.6725 19.504C17.6569 19.504 22.8113 19.504 27.9353 19.504C28.0452 19.504 28.1505 19.4604 28.2282 19.3827C28.3059 19.305 28.3496 19.1996 28.3496 19.0897C28.3496 18.9799 28.3059 18.8745 28.2282 18.7968C28.1505 18.7191 28.0452 18.6755 27.9353 18.6755C22.9204 18.6624 17.8728 18.6624 12.9821 18.6624C12.3999 16.8984 11.8919 15.1868 11.3403 13.3771C11.0546 12.4221 10.7581 11.4365 10.4529 10.4488C10.2065 9.56357 9.95354 8.74154 9.60904 7.71022C8.9353 5.47312 7.5769 1.08835 7.56164 1.04474C7.53549 0.959972 7.48283 0.88582 7.41139 0.833224C7.33996 0.780627 7.2535 0.752344 7.16479 0.75255H6.35806C6.31739 0.537881 6.20201 0.344565 6.03238 0.206864C5.86275 0.0691634 5.64983 -0.00401086 5.43139 0.000322211H0.939765C0.819495 -0.00286902 0.699776 0.017671 0.587447 0.0607676C0.475117 0.103864 0.372359 0.168682 0.285086 0.251499C0.197814 0.334317 0.127728 0.433506 0.0788106 0.543426C0.0298932 0.653346 0.00310873 0.771825 0 0.892099V1.45029C0.0068501 1.69301 0.109597 1.92312 0.285725 2.09025C0.461853 2.25739 0.697027 2.34793 0.939765 2.34207H5.43139C5.65103 2.34622 5.86499 2.27219 6.03512 2.13321C6.20525 1.99423 6.32048 1.79935 6.36024 1.5833H6.85956C7.17572 2.6059 8.24411 6.05747 8.82192 7.95442C9.16424 8.97921 9.41498 9.79033 9.657 10.6669C9.96008 11.6524 10.2566 12.6292 10.5444 13.5929C11.0873 15.455 11.6543 17.3454 12.28 19.2184Z" fill="#254359"></path>
    <path d="M31.7052 4.64895H10.6578C10.4145 4.64309 10.1788 4.73388 10.0022 4.90143C9.82568 5.06898 9.72273 5.29964 9.71588 5.54293V6.09892C9.72273 6.34221 9.82568 6.57288 10.0022 6.74042C10.1788 6.90797 10.4145 6.99874 10.6578 6.99288H10.9565L14.1159 17.7335C14.1412 17.8193 14.1935 17.8947 14.2649 17.9485C14.3364 18.0023 14.4233 18.0317 14.5128 18.0322H27.8481C27.9375 18.0317 28.0244 18.0023 28.0959 17.9485C28.1674 17.8947 28.2196 17.8193 28.2449 17.7335L31.4043 6.99288H31.7052C31.9482 6.99816 32.1833 6.90714 32.3594 6.73965C32.5355 6.57217 32.6381 6.34183 32.645 6.09892V5.54293C32.6381 5.30003 32.5355 5.06969 32.3594 4.9022C32.1833 4.73472 31.9482 4.64367 31.7052 4.64895Z" fill="#254359"></path>
    <path d="M12.6659 19.6784C12.2386 19.6784 11.8208 19.8052 11.4655 20.0426C11.1102 20.28 10.8332 20.6175 10.6697 21.0123C10.5061 21.4071 10.4633 21.8416 10.5467 22.2608C10.6301 22.6799 10.8359 23.0649 11.1381 23.3671C11.4403 23.6693 11.8253 23.8751 12.2444 23.9585C12.6636 24.0419 13.098 23.9991 13.4929 23.8355C13.8877 23.672 14.2251 23.395 14.4626 23.0397C14.7 22.6843 14.8267 22.2666 14.8267 21.8392C14.8256 21.2665 14.5976 20.7176 14.1926 20.3126C13.7876 19.9076 13.2387 19.6796 12.6659 19.6784Z" fill="#254359"></path>
    <path d="M28.1533 19.6784C27.726 19.6784 27.3082 19.8052 26.9529 20.0426C26.5976 20.28 26.3206 20.6175 26.157 21.0123C25.9935 21.4071 25.9507 21.8416 26.0341 22.2608C26.1174 22.6799 26.3232 23.0649 26.6254 23.3671C26.9276 23.6693 27.3126 23.8751 27.7318 23.9585C28.1509 24.0419 28.5854 23.9991 28.9802 23.8355C29.3751 23.672 29.7125 23.395 29.95 23.0397C30.1874 22.6843 30.3141 22.2666 30.3141 21.8392C30.3135 21.2663 30.0857 20.7171 29.6806 20.312C29.2755 19.9069 28.7262 19.679 28.1533 19.6784Z" fill="#254359"></path>
  </symbol>
  <symbol fill="none" xmlns="http://www.w3.org/2000/svg" viewBox="0 0 31 20" id="folder">
    <path d="M30.6658 0.498304C30.5274 0.33954 30.3553 0.212635 30.1617 0.126554C29.968 0.0404723 29.7576 -0.00268521 29.5451 0.000129322H8.59541C8.1642 0.0102163 7.74947 0.1652 7.42002 0.439361C7.09057 0.713522 6.86623 1.09038 6.78421 1.50738L6.77312 1.56738H1.454C1.24159 1.56482 1.03119 1.60809 0.837584 1.69415C0.643974 1.78022 0.47186 1.90699 0.333317 2.06556C0.196312 2.23066 0.0978326 2.4234 0.0448698 2.63014C-0.008093 2.83688 -0.0142501 3.05256 0.0268285 3.26191L2.75194 18.489C2.8332 18.9067 3.05722 19.2844 3.38674 19.5592C3.71626 19.8341 4.13141 19.9896 4.56313 19.9999H26.4304C26.6433 20.0026 26.8542 19.9592 27.0482 19.8728C27.2422 19.7864 27.4145 19.6591 27.553 19.4999C27.7191 19.3026 27.827 19.0643 27.865 18.8108L30.9741 1.69647C31.0143 1.48669 31.0076 1.2708 30.9543 1.06386C30.9011 0.856912 30.8026 0.663905 30.6658 0.498304ZM26.7203 18.8144C26.6836 18.8536 26.6386 18.8843 26.5885 18.9044C26.5384 18.9245 26.4845 18.9335 26.4304 18.9308H4.56313C4.38768 18.9191 4.22083 18.8516 4.08766 18.7384C3.95449 18.6253 3.86219 18.4727 3.82462 18.3035L1.09398 3.07645C1.08093 3.02074 1.08044 2.96288 1.09256 2.90697C1.10468 2.85105 1.12912 2.79843 1.16414 2.75282C1.20085 2.7137 1.24584 2.683 1.29593 2.6629C1.34602 2.64279 1.39998 2.63376 1.454 2.63646H7.75534C7.93089 2.64792 8.0979 2.71531 8.23112 2.82847C8.36435 2.94163 8.45657 3.0944 8.49386 3.26372L8.61202 3.91644C8.69328 4.33364 8.9171 4.71087 9.24627 4.98541C9.57544 5.25995 9.99013 5.41526 10.4214 5.42552H23.818C23.9934 5.43726 24.1603 5.50476 24.2934 5.61787C24.4266 5.73098 24.5189 5.88359 24.5565 6.05278L26.7831 18.489C26.7976 18.5444 26.7995 18.6024 26.7886 18.6586C26.7778 18.7149 26.7545 18.7681 26.7203 18.8144ZM29.9051 1.5092L27.3647 15.5381L25.6329 5.86005C25.5512 5.44271 25.327 5.06544 24.9975 4.79092C24.6681 4.5164 24.2531 4.36116 23.8217 4.35098H10.4251C10.2498 4.33866 10.0832 4.27096 9.95019 4.15794C9.81713 4.04493 9.72467 3.89264 9.68655 3.72372L9.57024 3.06918C9.49197 2.67411 9.28641 2.31444 8.98407 2.04356C8.68173 1.77269 8.29875 1.60506 7.89198 1.56556C7.94935 1.42431 8.04626 1.302 8.17143 1.21285C8.29661 1.12369 8.44491 1.07136 8.59909 1.06193H29.5451C29.5991 1.05924 29.6531 1.06826 29.7032 1.08837C29.7533 1.10848 29.7983 1.13918 29.835 1.1783C29.871 1.22483 29.8959 1.27869 29.9081 1.33593C29.9202 1.39318 29.9192 1.45238 29.9051 1.5092Z" fill="#254359"></path>
  </symbol>
  <symbol fill="none" xmlns="http://www.w3.org/2000/svg" viewBox="0 0 24 24" id="info">
    <path d="M12 3.90775e-05C9.6266 3.90775e-05 7.30654 0.703824 5.33316 2.0224C3.35977 3.34097 1.82169 5.21511 0.91344 7.40782C0.0051904 9.60053 -0.232437 12.0133 0.230585 14.3411C0.693606 16.6689 1.83648 18.807 3.5147 20.4853C5.19293 22.1635 7.33114 23.3064 9.65891 23.7694C11.9867 24.2324 14.3995 23.9948 16.5922 23.0865C18.7849 22.1783 20.659 20.6402 21.9776 18.6668C23.2962 16.6935 23.9999 14.3734 23.9999 12C24.004 10.423 23.6963 8.86077 23.0947 7.40305C22.4931 5.94533 21.6093 4.62088 20.4942 3.50578C19.3791 2.39067 18.0547 1.50691 16.5969 0.905284C15.1392 0.303656 13.577 -0.00399048 12 3.90775e-05ZM12 22.44C9.93461 22.44 7.91565 21.8275 6.1984 20.68C4.48115 19.5325 3.14275 17.9016 2.35247 15.9934C1.56219 14.0852 1.35554 11.9855 1.75863 9.95986C2.16172 7.93422 3.15646 6.0736 4.61704 4.61333C6.07762 3.15305 7.93843 2.1587 9.96416 1.75604C11.9899 1.35337 14.0895 1.56048 15.9975 2.35116C17.9056 3.14184 19.5362 4.48058 20.6834 6.19807C21.8305 7.91556 22.4426 9.93466 22.4421 12C22.4381 14.7678 21.3365 17.421 19.379 19.3777C17.4214 21.3344 14.7678 22.4349 12 22.4378V22.44Z" fill="#254359"></path>
    <path d="M12 3.06976C10.2342 3.06933 8.50794 3.59254 7.0395 4.5732C5.57106 5.55386 4.4264 6.94795 3.75026 8.57916C3.07413 10.2104 2.89689 12.0054 3.24095 13.7374C3.58502 15.4693 4.43495 17.0603 5.68324 18.3092C6.93154 19.5582 8.52214 20.4089 10.2539 20.7538C11.9857 21.0987 13.7809 20.9223 15.4124 20.247C17.0439 19.5716 18.4386 18.4277 19.4199 16.9597C20.4013 15.4917 20.9254 13.7657 20.9258 11.9999C20.9264 10.8274 20.6959 9.66627 20.2476 8.58284C19.7993 7.49941 19.1419 6.51492 18.313 5.68562C17.4841 4.85632 16.5 4.19847 15.4168 3.74964C14.3335 3.3008 13.1725 3.06976 12 3.06976ZM11.3454 5.86031C11.4867 5.7167 11.6678 5.61863 11.8652 5.57869C12.0627 5.53875 12.2676 5.55876 12.4536 5.63616C12.6396 5.71357 12.7982 5.84484 12.9091 6.01308C13.0199 6.18132 13.0779 6.37886 13.0756 6.58032C13.0776 6.71263 13.0529 6.84396 13.0031 6.96653C12.9532 7.0891 12.8792 7.20041 12.7855 7.29378C12.5941 7.48404 12.3353 7.59082 12.0654 7.59082C11.7956 7.59082 11.5368 7.48404 11.3454 7.29378C11.2517 7.20041 11.1777 7.0891 11.1278 6.96653C11.078 6.84396 11.0533 6.71263 11.0553 6.58032C11.0526 6.44617 11.0778 6.31292 11.1293 6.18899C11.1807 6.06507 11.2573 5.95315 11.3542 5.86031H11.3454ZM14.28 18.4232H9.8509V18.0676C10.0978 18.0739 10.3446 18.0512 10.5862 17.9999C10.7534 17.9658 10.9032 17.8739 11.0095 17.7403C11.12 17.5854 11.1843 17.4023 11.1949 17.2123C11.2241 16.9282 11.2373 16.6426 11.2342 16.357V12.8509C11.2342 12.269 11.224 11.813 11.2036 11.4828C11.1967 11.2296 11.1616 10.9778 11.0989 10.7323C11.0868 10.6675 11.0611 10.606 11.0235 10.5518C10.9859 10.4977 10.9372 10.4521 10.8807 10.4181C10.7654 10.3705 10.6411 10.3482 10.5164 10.3527C10.4132 10.352 10.3105 10.3652 10.2109 10.3919C10.0877 10.4212 9.96603 10.4569 9.84653 10.4988L9.69818 10.1454L12.4473 9.03049H12.8836V16.3636C12.8756 16.6998 12.9011 17.036 12.96 17.3672C12.9879 17.5562 13.0732 17.7322 13.2043 17.8712C13.3254 17.9788 13.4791 18.0426 13.6407 18.0523C13.8131 18.0654 14.0247 18.0741 14.2713 18.0741L14.28 18.4232Z" fill="#254359"></path>
  </symbol>
  <symbol fill="none" xmlns="http://www.w3.org/2000/svg" viewBox="0 0 25 25" id="contact">
    <path d="M8.98767 8.50617C9.30429 8.19198 9.55978 7.82169 9.74114 7.41417C10.3505 5.91813 10.0731 5.62984 10.0731 5.62984C9.67126 4.75624 8.81514 3.61184 7.68165 2.47834C6.54815 1.34484 5.39499 0.490887 4.53231 0.0890311C4.53231 0.0890311 3.128 -0.347772 2.0775 0.713652C1.93335 0.857796 1.80013 1.00412 1.67346 1.15045L8.98767 8.50617Z" fill="#254359"></path>
    <path d="M23.9175 19.4895C23.5178 18.6159 22.6617 17.4737 21.5282 16.3402C20.3947 15.2067 19.2394 14.3505 18.3767 13.9509C18.3767 13.9509 18.0884 13.6713 16.5946 14.2828C16.1873 14.4637 15.8171 14.7185 15.5026 15.0341L22.8343 22.3636C22.9784 22.2391 23.1247 22.1037 23.2711 21.9596C23.282 21.9596 23.2842 21.9596 23.282 21.9596C24.3543 20.8916 23.9175 19.4895 23.9175 19.4895Z" fill="#254359"></path>
    <path d="M14.7447 16.0846C14.6198 16.2356 14.4602 16.3542 14.2796 16.4302C14.0989 16.5063 13.9026 16.5376 13.7073 16.5214C12.3729 16.5214 10.3767 15.3268 9.54024 14.4903C8.4264 13.3765 6.68792 10.2228 7.94809 9.28364C8.01798 9.23996 8.09005 9.19628 8.16649 9.14823L1.03354 2.01312C-0.0431689 3.64457 0.000515246 4.94622 0.000515246 4.94622C0.000515246 4.94622 -0.185131 10.8692 6.49135 17.5435C12.8118 23.8771 18.4575 24.0322 19.0363 24.0322H19.1083C19.2852 24.0322 20.5105 23.9951 22.0196 22.9992L14.8845 15.8662C14.8233 15.9427 14.7753 16.0147 14.7447 16.0846Z" fill="#254359"></path>
  </symbol>
</svg>