<svg width="0" height="0" class="hidden">
  <symbol aria-hidden="true" focusable="false" data-prefix="fab" data-icon="facebook" role="img" xmlns="http://www.w3.org/2000/svg" viewBox="0 0 512 512" id="facebook-brands">
    <path fill="currentColor" d="M504 256C504 119 393 8 256 8S8 119 8 256c0 123.78 90.69 226.38 209.25 245V327.69h-63V256h63v-54.64c0-62.15 37-96.48 93.67-96.48 27.14 0 55.52 4.84 55.52 4.84v61h-31.28c-30.8 0-40.41 19.12-40.41 38.73V256h68.78l-11 71.69h-57.78V501C413.31 482.38 504 379.78 504 256z"></path>
  </symbol>
  <symbol aria-hidden="true" focusable="false" data-prefix="fab" data-icon="linkedin" role="img" xmlns="http://www.w3.org/2000/svg" viewBox="0 0 448 512" id="linkedin-brands">
    <path fill="currentColor" d="M416 32H31.9C14.3 32 0 46.5 0 64.3v383.4C0 465.5 14.3 480 31.9 480H416c17.6 0 32-14.5 32-32.3V64.3c0-17.8-14.4-32.3-32-32.3zM135.4 416H69V202.2h66.5V416zm-33.2-243c-21.3 0-38.5-17.3-38.5-38.5S80.9 96 102.2 96c21.2 0 38.5 17.3 38.5 38.5 0 21.3-17.2 38.5-38.5 38.5zm282.1 243h-66.4V312c0-24.8-.5-56.7-34.5-56.7-34.6 0-39.9 27-39.9 54.9V416h-66.4V202.2h63.7v29.2h.9c8.9-16.8 30.6-34.5 62.9-34.5 67.2 0 79.7 44.3 79.7 101.9V416z"></path>
  </symbol>
  <symbol xmlns="http://www.w3.org/2000/svg" xml:space="preserve" fill-rule="evenodd" clip-rule="evenodd" stroke-linejoin="round" stroke-miterlimit="2" viewBox="0 0 304 64" id="go-food">
    <path fill="#fff" fill-opacity=".01" d="M0 0h303.03v63.008H0z"></path>
    <path d="M30.667 4.501c16.316 0 29.563 12.1 29.563 27.003S46.983 58.507 30.667 58.507 1.104 46.407 1.104 31.504 14.351 4.501 30.667 4.501Zm-1.519 14.988c-.136-.976-1.058-1.715-2.139-1.715-.109 0-.217.007-.325.022-1.186.233-1.966 1.296-1.749 2.382a32.46 32.46 0 0 1 .594 6.392v.004c0 .723-.655 1.319-1.451 1.319-.794 0-1.448-.593-1.45-1.315l-.013-7.892c.049-1.007-.698-1.914-1.775-2.154a2.302 2.302 0 0 0-.322-.022c-1.194 0-2.177.894-2.177 1.981l.001.081.013 8.006c.015.751-.646 1.382-1.471 1.405-.805-.018-1.456-.625-1.456-1.358l.001-.059a32.886 32.886 0 0 1 .593-6.388c.22-1.088-.56-2.153-1.749-2.386a2.334 2.334 0 0 0-.354-.027c-1.078 0-1.992.746-2.109 1.72a45.82 45.82 0 0 0-.662 9.219c.039 3.072 1.753 5.923 4.567 7.6 1.259.709 2.06 1.934 2.143 3.285l.233 4.717c.022 1.198 1.07 2.166 2.381 2.202 1.304-.036 2.361-1.011 2.381-2.198l.23-4.556c.091-1.347.917-2.567 2.199-3.245 2.714-1.547 4.405-4.231 4.502-7.143a45.548 45.548 0 0 0-.636-9.877Zm12.61-2.985c-5.632 0-8.45 7.778-8.45 12.917.039 2.654 1.498 5.119 3.909 6.596 1.117.669 1.818 1.784 1.905 3.001l.264 5.292c0 1.184 1.071 2.158 2.372 2.158s2.372-.974 2.372-2.158l.269-5.292c.081-1.216.787-2.329 1.904-3.001 2.409-1.481 3.87-3.948 3.905-6.592 0-5.143-2.814-12.921-8.45-12.921Z" fill="#ee2737"></path>
    <path d="M82.338 46.966c2.499 3.263 6.681 5.129 11.047 4.931 5.152 0 8.935-3.001 8.935-7.089v-2.15h-.125c-2.814 2.514-6.669 3.832-10.606 3.627-6.224.161-12.075-2.767-15.256-7.636-3.192-4.874-3.253-10.955-.16-15.882 3.083-4.918 8.872-7.942 15.095-7.888 4.014-.233 7.963 1.038 10.922 3.517h.13v-2.95h8.81v29.252c0 8.506-7.386 14.401-17.749 14.401-6.791.335-13.36-2.327-17.628-7.143l6.58-4.99h.005Zm19.61-18.193c0-3.407-4.216-6.526-8.935-6.526-5.961 0-9.931 3.293-9.931 8.223-.173 2.335.784 4.627 2.628 6.253 1.837 1.627 4.376 2.431 6.926 2.194 5.156 0 9.316-2.95 9.316-6.636v-3.512l-.004.004Zm32.277-14.177c10.736 0 18.558 6.974 18.558 15.874s-7.818 15.87-18.558 15.87c-6.479.386-12.677-2.559-16.03-7.616-3.365-5.067-3.365-11.437 0-16.504 3.351-5.06 9.55-8.008 16.03-7.624Zm0 7.372c-5.11.041-9.28 3.893-9.247 8.541.012 4.648 4.22 8.467 9.329 8.467 5.111-.019 9.302-3.856 9.29-8.506.117-2.294-.837-4.529-2.623-6.151-1.783-1.618-4.239-2.473-6.753-2.351h.004Zm27.442.622h-7.888v-7.144h7.879v-3.059c0-5.273 4.034-8.506 10.801-8.506h8.627v7.202h-7.51c-1.801 0-2.728.792-2.728 2.324v2.039h12.286v7.144h-12.281v22.903h-9.186V22.59Zm40.337-7.994c10.736 0 18.559 6.974 18.559 15.874s-7.823 15.87-18.559 15.87c-6.48.387-12.68-2.557-16.034-7.616-3.366-5.068-3.366-11.44 0-16.508 3.353-5.06 9.553-8.007 16.034-7.62Zm0 7.372c-5.109.041-9.28 3.893-9.247 8.541.012 4.648 4.22 8.467 9.329 8.467 5.112-.019 9.302-3.856 9.29-8.506.117-2.294-.836-4.529-2.623-6.151-1.782-1.618-4.239-2.473-6.753-2.351h.004Zm40.775-7.372c10.736 0 18.558 6.974 18.558 15.874s-7.818 15.87-18.558 15.87c-6.479.386-12.677-2.559-16.03-7.616-3.365-5.067-3.365-11.437 0-16.504 3.351-5.06 9.55-8.008 16.03-7.624Zm0 7.372c-5.11.041-9.28 3.893-9.247 8.541.012 4.648 4.22 8.467 9.329 8.467 5.111-.019 9.302-3.856 9.29-8.506.117-2.294-.837-4.529-2.623-6.151-1.783-1.618-4.239-2.473-6.753-2.351h.004Zm39.788-7.372c3.873-.163 7.677.988 10.671 3.229h.13V4.113h9.181v41.388h-8.502v-2.945h-.121c-2.935 2.65-6.981 4.032-11.108 3.796-4.721.224-9.335-1.364-12.71-4.375-3.386-3.018-5.239-7.189-5.108-11.499-.072-4.255 1.764-8.358 5.082-11.357 3.309-2.993 7.825-4.627 12.489-4.517l-.004-.008Zm10.796 13.893c0-3.572-4.342-6.517-9.372-6.517-2.569-.174-5.101.651-6.965 2.268-1.862 1.619-2.901 3.883-2.84 6.234 0 5.159 3.848 8.447 9.805 8.447 5.217 0 9.372-2.95 9.372-6.636v-3.796Z" fill-rule="nonzero"></path>
  </symbol>
  <symbol xmlns="http://www.w3.org/2000/svg" xml:space="preserve" fill-rule="evenodd" clip-rule="evenodd" stroke-linejoin="round" stroke-miterlimit="2" viewBox="0 0 273 101" id="shopee-food">
    <path d="M124.239 99.228V49.4h30.318v9.685h-20.143v10.316h15.791v9.685h-15.791v20.142h-10.175ZM173.154 91.017c2.479 0 4.55-.877 6.211-2.631 1.661-1.755 2.492-3.989 2.492-6.703 0-2.713-.831-4.948-2.492-6.702-1.661-1.755-3.732-2.632-6.211-2.632-2.527 0-4.621.877-6.281 2.632-1.661 1.754-2.492 3.989-2.492 6.702 0 2.714.831 4.948 2.492 6.703 1.66 1.754 3.754 2.631 6.281 2.631Zm13.054 3.685c-3.604 3.533-7.955 5.298-13.054 5.298-5.1 0-9.451-1.765-13.054-5.298-3.603-3.532-5.403-7.872-5.403-13.019 0-5.1 1.8-9.428 5.403-12.983 3.603-3.555 7.954-5.334 13.054-5.334 5.099 0 9.45 1.779 13.054 5.334 3.602 3.555 5.404 7.883 5.404 12.983 0 5.147-1.802 9.487-5.404 13.019ZM213.789 91.017c2.478 0 4.549-.877 6.21-2.631 1.661-1.755 2.493-3.989 2.493-6.703 0-2.713-.832-4.948-2.493-6.702-1.661-1.755-3.732-2.632-6.21-2.632-2.526 0-4.621.877-6.282 2.632-1.66 1.754-2.49 3.989-2.49 6.702 0 2.714.83 4.948 2.49 6.703 1.661 1.754 3.756 2.631 6.282 2.631Zm13.053 3.685c-3.603 3.533-7.954 5.298-13.053 5.298-5.101 0-9.453-1.765-13.054-5.298-3.604-3.532-5.405-7.872-5.405-13.019 0-5.1 1.801-9.428 5.405-12.983 3.601-3.555 7.953-5.334 13.054-5.334 5.099 0 9.45 1.779 13.053 5.334 3.603 3.555 5.404 7.883 5.404 12.983 0 5.147-1.801 9.487-5.404 13.019ZM248.142 88.561c1.614 1.778 3.755 2.667 6.422 2.667s4.808-.889 6.422-2.667c1.614-1.778 2.422-4.07 2.422-6.878s-.808-5.1-2.422-6.878c-1.614-1.777-3.755-2.667-6.422-2.667s-4.808.89-6.422 2.667c-1.614 1.778-2.422 4.07-2.422 6.878s.808 5.1 2.422 6.878ZM252.528 100c-4.631 0-8.539-1.8-11.72-5.404-3.183-3.602-4.771-7.905-4.771-12.913 0-5.006 1.588-9.311 4.771-12.913 3.181-3.603 7.089-5.404 11.72-5.404 2.246 0 4.257.468 6.036 1.404 1.778.935 3.135 2.034 4.07 3.298V46.593h9.614v52.635h-9.614v-3.93c-.935 1.264-2.292 2.364-4.07 3.298-1.779.937-3.79 1.404-6.036 1.404Z" fill="#f05022" fill-rule="nonzero"></path>
    <path d="m255.501 21.375.053-.173c.828-2.701 3.332-4.501 6.253-4.501 2.788 0 5.443 1.893 6.36 4.496l.064.178h-12.73Zm15.605 3.74.051-.001c.609-.028 1.091-.547 1.091-1.18l-.002-.099.001-.073c0-5.964-4.676-10.798-10.443-10.798-5.766 0-10.442 4.834-10.442 10.798 0 .444.025.888.078 1.329l.003.023.015.116a10.538 10.538 0 0 0 2.65 5.71l.008.009c1.603 1.765 3.781 2.967 6.195 3.417l.032.006v-.003l.156.026.28.045c3.178.382 5.997-.076 8.384-1.278a10.382 10.382 0 0 0 1.575-.968 7.367 7.367 0 0 0 .525-.44c.539-.555.572-.752.247-1.258a54.67 54.67 0 0 0-.943-1.457 36.28 36.28 0 0 0-.246-.359l-.063-.09-.016-.022-.003-.004c-.294-.366-.495-.4-.823-.111-.034.03-.151.12-.171.143-2.297 2.039-5.433 2.695-8.564 2.04a9.489 9.489 0 0 1-1.631-.596c-1.963-.984-3.352-2.737-3.754-4.766l-.031-.16h15.799a.46.46 0 0 0 .042.001ZM230.653 21.375l.053-.173c.829-2.701 3.332-4.501 6.252-4.501 2.789 0 5.444 1.893 6.362 4.496l.062.178h-12.729Zm15.605 3.74.051-.001c.609-.028 1.092-.547 1.092-1.18l-.003-.099v-.073c0-5.964-4.676-10.798-10.443-10.798-5.765 0-10.442 4.834-10.442 10.798 0 .444.026.888.078 1.329l.003.023.017.116a10.535 10.535 0 0 0 2.648 5.71l.009.009c1.604 1.765 3.78 2.967 6.195 3.417l.032.006v-.003l.157.026c.08.014.165.027.279.045 3.178.382 5.997-.076 8.384-1.278a10.37 10.37 0 0 0 1.574-.968c.148-.112.28-.219.395-.32.059-.051.106-.095.13-.12.54-.555.573-.752.249-1.258a56.78 56.78 0 0 0-.945-1.457 36.28 36.28 0 0 0-.246-.359l-.062-.09-.019-.026c-.295-.366-.496-.4-.822-.111-.035.03-.152.12-.173.143-2.296 2.039-5.432 2.695-8.564 2.04a9.509 9.509 0 0 1-1.63-.596c-1.962-.984-3.352-2.737-3.753-4.766l-.033-.16h15.799l.043.001ZM211.743 31.061c-3.884 0-7.061-3.079-7.159-6.938v-.363c.097-3.853 3.275-6.932 7.159-6.932 3.954 0 7.159 3.186 7.159 7.116 0 3.931-3.205 7.117-7.159 7.117Zm.002-18.009c-2.548 0-4.982.868-6.938 2.459l-.223.181V13.7c0-.531-.114-.648-.651-.648h-2.5c-.545 0-.652.109-.652.648v31.748c0 .521.122.648.652.648h2.5c.532 0 .651-.124.651-.648v-13.24l.223.181a10.959 10.959 0 0 0 6.938 2.459c6.054 0 10.962-4.879 10.962-10.898s-4.908-10.898-10.962-10.898ZM185.997 30.818c-3.961 0-7.173-3.158-7.173-7.055s3.213-7.056 7.173-7.056c3.962 0 7.174 3.159 7.174 7.056 0 3.897-3.212 7.055-7.174 7.055ZM186 12.964c-6.067 0-10.984 4.837-10.984 10.804 0 5.966 4.917 10.804 10.984 10.804s10.984-4.838 10.984-10.804c0-5.967-4.917-10.804-10.984-10.804ZM161.515 13.204a10.3 10.3 0 0 0-6.136 2.028l-.216.16V.648c0-.488-.161-.648-.649-.648h-2.617c-.528 0-.649.126-.649.648v33.635c0 .509.13.649.649.649h2.617c.485 0 .649-.168.649-.649V23.297c.027-3.459 2.864-6.25 6.352-6.25 3.497 0 6.336 2.805 6.351 6.275v10.961c0 .556.092.649.649.649h2.61c.554 0 .65-.095.65-.649V23.289c-.021-5.545-4.645-10.085-10.26-10.085ZM125.051 28.83l-.006.01a80.38 80.38 0 0 0-.616.94c-.295.437-.258.633.191 1.012 1.048.845 2.396 1.733 3.305 2.177 2.53 1.237 5.262 1.891 8.157 1.95 1.871.095 4.219-.35 5.969-1.131 3.166-1.412 5.184-4.165 5.537-7.557.573-5.494-3.003-8.93-12.212-11.698l-.003-.001c-4.291-1.384-6.306-3.223-6.306-5.791.126-2.839 2.758-4.96 6.309-5.093 2.861.008 5.389.767 7.874 2.367.525.317.766.259 1.119-.198.04-.068.153-.232.624-.908l.001-.002c.44-.632.585-.843.621-.905.297-.559.254-.774-.282-1.154-.528-.378-2.014-1.151-2.864-1.491-2.364-.943-4.808-1.401-7.241-1.354-5.536.12-9.854 3.721-10.138 8.444-.181 3.412 1.551 6.155 5.168 8.183 1.015.536 4.723 1.938 6.454 2.445 4.921 1.441 7.488 4.092 6.957 7.22-.481 2.842-3.46 4.732-7.638 4.862-3.03-.063-6.083-1.174-8.734-3.166l-.205-.152-.2-.15c-.54-.373-.858-.341-1.188.15-.04.061-.45.685-.653.991Z" fill="#f05022"></path>
    <path d="M68.541 20.256H27.367v-9.301a2.977 2.977 0 0 1 2.976-2.977h35.221a2.977 2.977 0 0 1 2.977 2.977v9.301ZM83.009 0H12.898L0 18.85s2.72 54.572 2.72 72.936c0 2.963 3.688 8.214 6.604 8.214h77.258c2.918 0 6.605-5.251 6.605-8.214 0-18.364 2.721-72.936 2.721-72.936L83.009 0Z" fill="#ef4e2b" fill-rule="nonzero"></path>
    <path d="M38.806 64.701c.018 1.221-6.474 8.184-6.474 8.184L31.334 100h-7.32l-1.008-27.115s-6.491-6.963-6.473-8.184c.018-.874 0-2.069 0-2.069l.66-29.407c0-.374.303-.677.677-.677h2.568c.089 0 .169.027.232.072.401.071.793.231.883.624 0 0 .017 0 .017.008l.01.134v.607s.124 5.947.24 11.992c.134 6.045.268 12.179.285 12.545.134.161 1.061 1.061 1.935 1.034.874-.026 1.882-1.061 1.882-1.061V33.582c0-.945 1.373-1.034 1.373-1.034h.766s1.356.089 1.356 1.034v24.921s1.007 1.035 1.881 1.061c.874.027 1.801-.873 1.944-1.034.053-.731.517-24.537.517-24.537l.018-.607v-.134c0-.008.009-.008.009-.008.089-.393.481-.553.882-.624a.419.419 0 0 1 .232-.072h2.568c.375 0 .687.303.687.677l.651 29.407s-.009 1.195 0 2.069ZM79.375 52.583c0 10.878-6.99 18.546-9.978 21.336-.82.758-1.373 1.909-1.426 3.158-.232 5.492-.874 20.524-.981 22.923h-6.518c-.107-2.399-.748-17.431-.98-22.923-.054-1.249-.607-2.4-1.427-3.158-2.987-2.79-9.978-10.458-9.978-21.336 0-13.838 9.514-19.963 15.64-19.963 6.134 0 15.648 6.125 15.648 19.963Z" fill="#fff"></path>
  </symbol>
  <symbol xmlns="http://www.w3.org/2000/svg" xml:space="preserve" fill-rule="evenodd" clip-rule="evenodd" stroke-linejoin="round" stroke-miterlimit="2" viewBox="0 0 311 58" id="grab-food">
    <g fill="#00a83b">
      <path d="M301.895 19.368c-.614-.411-.893-.868-1.662-1.379-.692-.459-1.293-.767-2.071-1.131-4.305-2.018-10.607-1.264-14.815.449-6.234 2.54-10.264 9.47-10.264 16.788 0 4.692-.285 8.164 1.553 12.532 4.288 10.194 16.105 13.014 25.294 9.353 1.137-.453 2.013-.951 2.928-1.554 2.005-1.323 2.246-1.762 3.64-3.243.395-.419.601-.802.936-1.305 1.974-2.962 3.266-6.725 3.266-10.661V1.12h-8.805v18.248Zm-20.01 19.208c0-4.609-.374-9.506 4.192-12.616 6.13-4.177 15.818-.789 15.818 7.494 0 3.628.362 6.359-.845 9.399-.404 1.022-1.141 2.256-1.832 2.97-2.999 3.105-8.045 3.905-11.729 2.038-1.039-.525-2.135-1.141-2.887-2.077-1.416-1.763-2.717-4.027-2.717-7.208M189.204 33.936c0 6.31-.276 10.072 3.108 15.618 4.659 7.637 16.143 9.81 24.1 6.306 1.166-.514 2.073-.972 3.111-1.692.549-.378.86-.642 1.34-1.06 2.186-1.908 3.871-4.142 4.901-7.105 2.07-5.96 2.134-16.543-1.373-21.964-.772-1.192-2.011-2.933-3.104-3.779-.531-.412-.637-.635-1.217-1.023-4.854-3.255-7.566-3.55-13.418-3.55-4.594 0-9.431 2.261-12.448 5.319-3.095 3.137-5 8.403-5 12.93m19.05 15.045c-1.533 0-3.097-.403-4.258-.864-3.508-1.392-5.988-5.498-5.988-9.541 0-4.218-.367-8.229 2.759-11.326 6.447-6.383 17.571-2.506 17.571 7.645 0 3.79.064 7.944-2.678 10.769-.86.886-1.783 1.748-2.991 2.292-1.095.492-2.929 1.025-4.415 1.025M230.824 33.935v4.961c0 10.511 7.667 18.568 18.567 18.568 3.384 0 6.105-.489 8.639-1.604 1.831-.806 2.981-1.471 4.451-2.753 5.758-5.025 6.279-10.94 6.279-18.213 0-4.616-1.098-8.701-3.657-12.19-1.763-2.406-3.642-3.869-6.318-5.206-4.864-2.431-12.735-2.457-17.665-.159-4.118 1.92-7.123 4.952-8.79 9.138-.797 2.002-1.506 4.753-1.506 7.458m19.047 15.045c-4.141 0-7.832-2.372-9.309-6.058-1.213-3.023-.935-5.08-.935-8.348 0-13.746 20.33-14.067 20.33.32 0 2.752.156 4.859-.738 7.427-.384 1.101-1.225 2.605-1.941 3.342-1.955 2.013-4.345 3.317-7.407 3.317M156.71 7.683v48.501c0 .369.111.481.479.481h8.164c.369 0 .481-.112.481-.481V37.456h18.087v-8.483h-18.087V15.687h20.009V7.683c0-.368-.112-.479-.481-.479h-28.173c-.368 0-.479.111-.479.479M0 31.534c0 6.257.199 8.925 3.095 14.354.336.63.708 1.214 1.096 1.783.838 1.227 1.617 2.076 2.651 3.111 2.282 2.28 3.516 3.205 6.604 4.763 6.518 3.289 16.258 2.904 22.536-.515 1.323-.719 2.505-1.361 3.674-2.408.437-.391 2.282-1.825 2.282-2.52V30.253H22.729v3.842h15.368v14.726c0 .691-1.741 1.8-2.331 2.151-1.062.634-1.862 1.108-3.09 1.553-7.968 2.887-17.09 1.669-23.192-4.384-2.769-2.747-5.643-7.944-5.643-13.406 0-4.059.093-7.438 2.211-10.916l4.329-5.596c5.648-4.521 8.997-5.738 16.511-5.738 2.05 0 4.005.278 5.723.68l3.531 1.27c.361.173.757.403 1.151.611v-4.322c-1.666-.388-1.432-.792-5.419-1.465-5.447-.922-11.717-.511-16.556 1.58-2.46 1.063-5.499 2.792-7.356 4.649-1.307 1.31-1.262 1.007-2.895 3.029a21.162 21.162 0 0 0-1.295 1.746c-.457.689-.719 1.177-1.148 1.893C1.25 24.464 0 28.794 0 31.534M69.47 33.615c0 4.86-.388 8.198 1.811 12.596.779 1.556 2.484 4.033 3.793 5.17 4.495 3.902 9.354 6.163 15.829 4.946 1.108-.208 1.948-.636 2.578-.783v-3.842c-4.037.94-6.215 2.1-11.37-.153a12.67 12.67 0 0 1-2.27-1.252c-1.295-.872-2.675-2.143-3.626-3.418-3.42-4.581-2.902-7.815-2.902-13.264 0-1.758.869-4.051 1.44-5.283 1.934-4.171 7.301-8.163 12.326-8.163 4.309 0 7.098.785 10.293 3.471 3.152 2.649 5.074 6.436 5.074 10.775v22.25h3.841V34.254c0-2.501-.841-5.381-1.706-7.097-1.528-3.031-1.408-2.595-3.12-4.725-2.727-3.392-8.314-6.106-12.783-6.106h-1.599c-9.231 0-17.609 8.987-17.609 17.289M108.688 37.936c.542-.363 3.916-4.715 4.518-5.407l4.726-5.197c4.327-4.327 7.131-7.163 13.966-7.163 3.523 0 7.093 1.84 9.51 4.257l.155.164c4.25 4.59 4.262 7.659 4.262 13.666 0 13.788-18.157 20.216-26.478 8.23-.611-.88-1.753-2.989-1.856-4.228-.473.126-.488.34-.768.672-.266.313-.394.477-.649.791-.151.188-1.304 1.501-1.304 1.578 0 2.371 3.525 6.435 5.793 7.974 13.147 8.915 29.104-.974 29.104-15.337v-3.2a17.94 17.94 0 0 0-5.243-12.687c-1.693-1.689-2.866-2.713-5.106-3.857-5.705-2.918-12.65-2.428-17.92 1.241l-2.397 1.766c-2.024 1.591-3.737 3.375-5.473 5.252-.301.324-.297.394-.566.714-.273.321-.407.399-.684.754a30.255 30.255 0 0 1-1.23 1.493c-3.256 3.653-2.36 3.119-2.36 8.524"></path>
      <path d="M6.403 32.654v1.281c0 9.477 7.808 17.447 17.288 17.447 3.18 0 6.975-.575 9.608-1.916.491-.25 2.077-1.166 2.077-1.765V36.655H22.73v3.843h9.125v5.601c-2.946.687-3.549 1.442-8.004 1.442-7.691 0-13.606-6.069-13.606-13.767v-1.44c0-4.004 2.47-7.693 4.689-9.557 4.75-3.995 11.044-4.72 17.275-3.124.954.244 2.004.622 2.797 1.046.861.46 1.545 1.052 2.291 1.55v-4.642c-.764-.178-1.654-.73-2.498-1.023-6.6-2.292-13.998-2.225-19.945 1.47l-2.651 1.993c-2.962 2.743-5.8 6.964-5.8 12.607M108.688 48.342c.223-.15 7.585-9.454 9.325-11.326 1.962-2.11 3.764-4.405 5.922-6.563 2.838-2.838 6.205-5.252 10.817-3.053 3.934 1.874 4.669 5.21 4.669 9.736 0 3.025-.624 4.584-1.985 6.338-1.574 2.027-3.898 2.786-6.658 2.786-4.278 0-8.164-5.961-8.164-10.404-.649.434-2.468 3.19-3.201 3.681.578 1.203.671 3.96 3.721 7.003 1.801 1.797 4.473 3.563 7.324 3.563 2.363 0 3.79-.067 5.927-1.117 3.571-1.757 6.718-5.858 6.718-9.929 0-5.647.578-8.581-3.72-12.927-1.676-1.695-4.809-3.4-8.124-3.4-3.242 0-6.593 2.079-8.363 3.642-2.002 1.769-6.66 6.919-8.653 9.276-.782.923-5.189 6.064-5.448 6.717-.351.876-.107 4.728-.107 5.977M75.873 34.574c0 4.584-.262 8.172 3.401 11.807 3.266 3.238 7.591 4.616 11.988 3.263 1.334-.41 1.676-.838 2.219-.984v-4.161c-6.522 4.367-13.766.1-13.766-6.082v-3.843c0-6.518 8.245-11.148 14.048-5.403 1.443 1.428 2.279 3.39 2.279 6.205v21.289h3.842V35.376c0-9.231-8.413-15.059-16.833-11.552-1.099.458-2.651 1.572-3.538 2.385-.297.271-.386.481-.648.794-1.785 2.124-2.992 4.511-2.992 7.571M45.94 34.254v22.411h3.841V34.254c0-5.263 3.105-10.735 7.909-12.74 3.787-1.58 8.318-1.955 12.194-.319.549.232.787.444 1.348.575.252-.947 2.166-2.166 2.401-3.042-.279-.075-2.036-1.075-3.66-1.623-2.347-.792-4.096-.779-6.585-.779-5.559 0-11.212 3.115-14.247 7.684-1.887 2.84-3.201 6.379-3.201 10.244"></path>
      <path d="M52.343 35.695v20.488c0 .824 1.582.482 3.843.482v-21.13c0-6.202 4.087-9.729 10.041-8.761.595.097 1.174.386 1.803.438.271-.564.444-1.05.747-1.655.25-.497.741-1.281.854-1.708-.521-.121-.699-.296-1.14-.46-4.409-1.644-9.698-.191-12.909 3.058-2.291 2.32-3.239 5.788-3.239 9.248M112.53 23.69c.604-.404 1.779-2.241 3.37-3.514.243-.193.471-.215.471-.647V0h-3.841v23.69ZM118.934 18.248c1.03-.546 1.746-1.357 2.933-2.029.373-.21.908-.414.908-.852V0h-3.841v18.248Z"></path>
    </g>
  </symbol>
</svg>