<svg width="0" height="0" class="hidden">
  <symbol fill="none" xmlns="http://www.w3.org/2000/svg" viewBox="0 0 14 18" id="Union">
    <path d="M7 9C8.10457 9 9 8.10457 9 7C9 5.89543 8.10457 5 7 5C5.89543 5 5 5.89543 5 7C5 8.10457 5.89543 9 7 9Z" fill="currentColor"></path>
    <path fill-rule="evenodd" clip-rule="evenodd" d="M7 0C3.13401 0 0 3.13401 0 7C0 9.79368 1.63609 12.2031 4 13.3261V15C4 16.6569 5.34315 18 7 18C8.65685 18 10 16.6569 10 15V13.3261C12.3639 12.2031 14 9.79368 14 7C14 3.13401 10.866 0 7 0ZM2 7C2 4.23858 4.23858 2 7 2C9.76142 2 12 4.23858 12 7C12 9.17547 10.6101 11.0289 8.66675 11.7157L8 11.9514V15C8 15.5523 7.55228 16 7 16C6.44772 16 6 15.5523 6 15V11.9514L5.33325 11.7157C3.38991 11.0289 2 9.17547 2 7Z" fill="currentColor"></path>
  </symbol>
</svg>