<svg width="32" height="32" viewBox="0 0 32 32" fill="none" xmlns="http://www.w3.org/2000/svg">
<rect width="32" height="32" rx="2" fill="#333333"/>
<path d="M4.70406 10.66C4.70406 10.54 4.77606 10.48 4.92006 10.48C4.96806 10.48 5.07606 10.488 5.24406 10.504C5.42006 10.52 5.52406 10.528 5.55606 10.528C5.67606 10.528 5.84006 10.524 6.04806 10.516C6.25606 10.508 6.39206 10.504 6.45606 10.504C6.60806 10.504 6.70406 10.56 6.74406 10.672C6.84006 10.88 7.01206 11.256 7.26006 11.8C7.50806 12.336 7.70406 12.764 7.84806 13.084C8.00006 13.404 8.19206 13.812 8.42406 14.308C8.65606 14.804 8.84406 15.208 8.98806 15.52C9.13206 15.824 9.28006 16.132 9.43206 16.444C9.59206 16.756 9.71206 16.988 9.79206 17.14C9.88006 17.284 9.93606 17.356 9.96006 17.356C9.98406 17.356 10.0081 17.344 10.0321 17.32C10.0641 17.288 10.0921 17.248 10.1161 17.2C10.1481 17.152 10.1721 17.104 10.1881 17.056C10.2121 17.008 10.2401 16.948 10.2721 16.876C10.3121 16.796 10.3401 16.736 10.3561 16.696L11.9041 13.504C12.0801 13.144 12.2361 12.82 12.3721 12.532C12.5081 12.244 12.6161 12.012 12.6961 11.836C12.7761 11.66 12.8441 11.508 12.9001 11.38C12.9561 11.252 12.9961 11.156 13.0201 11.092C13.0521 11.028 13.0721 10.98 13.0801 10.948C13.0961 10.908 13.1081 10.88 13.1161 10.864C13.1241 10.84 13.1321 10.82 13.1401 10.804C13.1481 10.788 13.1601 10.752 13.1761 10.696C13.2001 10.64 13.2201 10.604 13.2361 10.588C13.2601 10.564 13.3001 10.54 13.3561 10.516C13.4201 10.492 13.5001 10.48 13.5961 10.48C13.7481 10.48 13.8881 10.484 14.0161 10.492C14.1521 10.5 14.3561 10.504 14.6281 10.504C14.7641 10.504 14.8321 10.556 14.8321 10.66C14.8321 10.74 14.8041 10.8 14.7481 10.84C14.7001 10.872 14.5961 10.9 14.4361 10.924C14.2361 10.948 14.0961 11.048 14.0161 11.224C13.9361 11.4 13.8961 11.736 13.8961 12.232C13.8961 13.312 13.9201 14.292 13.9681 15.172C14.0161 16.044 14.0401 16.592 14.0401 16.816C14.0401 17.616 14.1041 18.128 14.2321 18.352C14.3601 18.568 14.6281 18.676 15.0361 18.676C15.0921 18.676 15.1401 18.696 15.1801 18.736C15.2281 18.776 15.2521 18.812 15.2521 18.844C15.2521 18.892 15.2481 18.928 15.2401 18.952C15.2321 18.976 15.2161 18.996 15.1921 19.012C15.1681 19.028 15.1441 19.036 15.1201 19.036C15.0961 19.036 15.0521 19.036 14.9881 19.036C14.7481 19.036 14.5121 19.028 14.2801 19.012C14.0481 18.996 13.8761 18.988 13.7641 18.988C13.5401 18.988 13.3081 18.996 13.0681 19.012C12.8281 19.036 12.6441 19.048 12.5161 19.048C12.3721 19.048 12.3001 18.992 12.3001 18.88C12.3001 18.808 12.3321 18.756 12.3961 18.724C12.4601 18.692 12.5321 18.672 12.6121 18.664C12.7001 18.656 12.7881 18.608 12.8761 18.52C12.9721 18.424 13.0401 18.284 13.0801 18.1C13.1121 17.94 13.1281 17.684 13.1281 17.332C13.1281 17.076 13.1201 16.768 13.1041 16.408C13.0961 16.048 13.0841 15.7 13.0681 15.364C13.0521 15.02 13.0361 14.7 13.0201 14.404C13.0041 14.1 12.9921 13.852 12.9841 13.66L12.9601 13.372C12.9601 13.028 12.9241 12.856 12.8521 12.856C12.8441 12.856 12.8321 12.86 12.8161 12.868C12.8001 12.876 12.7841 12.888 12.7681 12.904C12.7601 12.92 12.7481 12.936 12.7321 12.952C12.7161 12.968 12.7001 12.996 12.6841 13.036C12.6681 13.068 12.6521 13.096 12.6361 13.12C12.6201 13.144 12.6001 13.18 12.5761 13.228C12.5521 13.268 12.5321 13.304 12.5161 13.336C12.5001 13.368 12.4761 13.412 12.4441 13.468C12.4201 13.524 12.4001 13.572 12.3841 13.612L10.7161 16.984C10.5241 17.376 10.3201 17.796 10.1041 18.244C9.96006 18.548 9.87206 18.728 9.84006 18.784C9.80806 18.832 9.76806 18.856 9.72006 18.856C9.64806 18.856 9.58806 18.824 9.54006 18.76C9.49206 18.688 9.42006 18.536 9.32406 18.304C9.22806 18.072 9.14406 17.88 9.07206 17.728C7.60806 14.752 6.85606 13.236 6.81606 13.18C6.79206 13.148 6.76806 13.132 6.74406 13.132C6.68006 13.132 6.64806 13.292 6.64806 13.612C6.64006 14.236 6.62006 14.852 6.58806 15.46C6.55606 16.068 6.54006 16.508 6.54006 16.78V17.32C6.54006 17.528 6.54406 17.688 6.55206 17.8C6.56806 17.912 6.60006 18.044 6.64806 18.196C6.70406 18.34 6.80006 18.452 6.93606 18.532C7.07206 18.612 7.24806 18.664 7.46406 18.688C7.50406 18.688 7.54006 18.704 7.57206 18.736C7.61206 18.76 7.63206 18.788 7.63206 18.82C7.63206 18.908 7.62006 18.968 7.59606 19C7.57206 19.024 7.52406 19.036 7.45206 19.036C7.29206 19.036 7.05206 19.028 6.73206 19.012C6.41206 18.996 6.23606 18.988 6.20406 18.988C6.18806 18.988 6.07206 18.992 5.85606 19C5.64006 19.016 5.42806 19.024 5.22006 19.024C5.15606 19.024 5.10806 19.02 5.07606 19.012C5.05206 19.004 5.02806 18.988 5.00406 18.964C4.98006 18.932 4.96806 18.888 4.96806 18.832C4.96806 18.768 5.00406 18.724 5.07606 18.7C5.14806 18.676 5.22806 18.664 5.31606 18.664C5.41206 18.656 5.51606 18.592 5.62806 18.472C5.74006 18.344 5.82406 18.16 5.88006 17.92C5.92006 17.744 5.96806 17.048 6.02406 15.832C6.08006 14.616 6.10806 13.716 6.10806 13.132C6.10806 12.332 6.02806 11.78 5.86806 11.476C5.71606 11.172 5.38006 10.96 4.86006 10.84C4.75606 10.816 4.70406 10.756 4.70406 10.66ZM18.2436 15.052C18.2436 14.18 18.4156 13.396 18.7596 12.7C19.1116 12.004 19.6476 11.444 20.3676 11.02C21.0876 10.588 21.9436 10.372 22.9356 10.372C23.3196 10.372 23.6796 10.404 24.0156 10.468C24.3516 10.524 24.6276 10.592 24.8436 10.672C25.0596 10.752 25.2476 10.836 25.4076 10.924C25.5676 11.004 25.6876 11.076 25.7676 11.14C25.8556 11.196 25.9076 11.224 25.9236 11.224C25.9476 11.224 25.9996 11.196 26.0796 11.14C26.1676 11.076 26.2276 11.044 26.2596 11.044C26.3796 11.044 26.4396 11.124 26.4396 11.284C26.4476 11.516 26.4636 11.76 26.4876 12.016C26.5196 12.272 26.5476 12.484 26.5716 12.652C26.5956 12.82 26.6076 12.92 26.6076 12.952C26.6076 13.088 26.5596 13.156 26.4636 13.156C26.3676 13.156 26.2996 13.108 26.2596 13.012C25.9796 12.404 25.5116 11.892 24.8556 11.476C24.1996 11.052 23.5236 10.84 22.8276 10.84C21.8276 10.84 20.9996 11.156 20.3436 11.788C19.6956 12.412 19.3716 13.28 19.3716 14.392C19.3716 15.128 19.5076 15.82 19.7796 16.468C20.0516 17.116 20.4636 17.652 21.0156 18.076C21.5756 18.5 22.2156 18.712 22.9356 18.712C23.5516 18.712 24.1076 18.572 24.6036 18.292C25.1076 18.012 25.3876 17.692 25.4436 17.332C25.4676 17.14 25.4796 16.636 25.4796 15.82C25.4796 15.508 25.4116 15.284 25.2756 15.148C25.1796 15.052 25.0036 14.988 24.7476 14.956C24.5076 14.932 24.3676 14.884 24.3276 14.812C24.3116 14.78 24.3036 14.74 24.3036 14.692C24.3036 14.604 24.3756 14.56 24.5196 14.56C24.6236 14.56 24.8476 14.572 25.1916 14.596C25.5356 14.612 25.7556 14.62 25.8516 14.62C26.0116 14.62 26.1836 14.62 26.3676 14.62C26.5516 14.612 26.6996 14.608 26.8116 14.608H26.9916C27.1196 14.608 27.1836 14.644 27.1836 14.716C27.1836 14.772 27.0796 14.844 26.8716 14.932C26.6716 15.02 26.5596 15.132 26.5356 15.268C26.4796 15.612 26.4516 16.06 26.4516 16.612C26.4516 16.852 26.4556 17.064 26.4636 17.248C26.4716 17.432 26.4756 17.564 26.4756 17.644C26.4836 17.716 26.4916 17.78 26.4996 17.836C26.5076 17.892 26.5116 17.932 26.5116 17.956C26.5116 17.996 26.4796 18.028 26.4156 18.052C26.3596 18.068 26.2636 18.096 26.1276 18.136C25.9916 18.168 25.8676 18.216 25.7556 18.28L25.6716 18.328C25.6156 18.368 25.5596 18.404 25.5036 18.436C25.4476 18.468 25.3716 18.508 25.2756 18.556C25.1876 18.604 25.0956 18.652 24.9996 18.7C24.9036 18.748 24.7956 18.8 24.6756 18.856C24.5556 18.904 24.4316 18.948 24.3036 18.988C24.1756 19.028 24.0436 19.064 23.9076 19.096C23.7716 19.128 23.6276 19.152 23.4756 19.168C23.3316 19.192 23.1876 19.204 23.0436 19.204C22.1716 19.204 21.4116 19.088 20.7636 18.856C20.1236 18.616 19.6276 18.296 19.2756 17.896C18.9236 17.488 18.6636 17.048 18.4956 16.576C18.3276 16.104 18.2436 15.596 18.2436 15.052Z" fill="#EFEFEF"/>
</svg>
