<svg width="88" height="16" viewBox="0 0 88 16" fill="none" xmlns="http://www.w3.org/2000/svg">
<path d="M0.32 0.879999C0.32 0.719999 0.416 0.639999 0.608 0.639999C0.672 0.639999 0.816 0.650666 1.04 0.672C1.27467 0.693333 1.41333 0.704 1.456 0.704C1.616 0.704 1.83467 0.698666 2.112 0.688C2.38933 0.677333 2.57067 0.672 2.656 0.672C2.85867 0.672 2.98667 0.746667 3.04 0.896C3.168 1.17333 3.39733 1.67467 3.728 2.4C4.05867 3.11467 4.32 3.68533 4.512 4.112C4.71467 4.53867 4.97067 5.08267 5.28 5.744C5.58933 6.40533 5.84 6.944 6.032 7.36C6.224 7.76533 6.42133 8.176 6.624 8.592C6.83733 9.008 6.99733 9.31733 7.104 9.52C7.22133 9.712 7.296 9.808 7.328 9.808C7.36 9.808 7.392 9.792 7.424 9.76C7.46667 9.71733 7.504 9.664 7.536 9.6C7.57867 9.536 7.61067 9.472 7.632 9.408C7.664 9.344 7.70133 9.264 7.744 9.168C7.79733 9.06133 7.83467 8.98133 7.856 8.928L9.92 4.672C10.1547 4.192 10.3627 3.76 10.544 3.376C10.7253 2.992 10.8693 2.68267 10.976 2.448C11.0827 2.21333 11.1733 2.01067 11.248 1.84C11.3227 1.66933 11.376 1.54133 11.408 1.456C11.4507 1.37067 11.4773 1.30667 11.488 1.264C11.5093 1.21067 11.5253 1.17333 11.536 1.152C11.5467 1.12 11.5573 1.09333 11.568 1.072C11.5787 1.05067 11.5947 1.00267 11.616 0.927999C11.648 0.853333 11.6747 0.805333 11.696 0.783999C11.728 0.751999 11.7813 0.719999 11.856 0.688C11.9413 0.656 12.048 0.639999 12.176 0.639999C12.3787 0.639999 12.5653 0.645333 12.736 0.655999C12.9173 0.666666 13.1893 0.672 13.552 0.672C13.7333 0.672 13.824 0.741333 13.824 0.879999C13.824 0.986666 13.7867 1.06667 13.712 1.12C13.648 1.16267 13.5093 1.2 13.296 1.232C13.0293 1.264 12.8427 1.39733 12.736 1.632C12.6293 1.86667 12.576 2.31467 12.576 2.976C12.576 4.416 12.608 5.72267 12.672 6.896C12.736 8.05867 12.768 8.78933 12.768 9.088C12.768 10.1547 12.8533 10.8373 13.024 11.136C13.1947 11.424 13.552 11.568 14.096 11.568C14.1707 11.568 14.2347 11.5947 14.288 11.648C14.352 11.7013 14.384 11.7493 14.384 11.792C14.384 11.856 14.3787 11.904 14.368 11.936C14.3573 11.968 14.336 11.9947 14.304 12.016C14.272 12.0373 14.24 12.048 14.208 12.048C14.176 12.048 14.1173 12.048 14.032 12.048C13.712 12.048 13.3973 12.0373 13.088 12.016C12.7787 11.9947 12.5493 11.984 12.4 11.984C12.1013 11.984 11.792 11.9947 11.472 12.016C11.152 12.048 10.9067 12.064 10.736 12.064C10.544 12.064 10.448 11.9893 10.448 11.84C10.448 11.744 10.4907 11.6747 10.576 11.632C10.6613 11.5893 10.7573 11.5627 10.864 11.552C10.9813 11.5413 11.0987 11.4773 11.216 11.36C11.344 11.232 11.4347 11.0453 11.488 10.8C11.5307 10.5867 11.552 10.2453 11.552 9.776C11.552 9.43467 11.5413 9.024 11.52 8.544C11.5093 8.064 11.4933 7.6 11.472 7.152C11.4507 6.69333 11.4293 6.26667 11.408 5.872C11.3867 5.46667 11.3707 5.136 11.36 4.88L11.328 4.496C11.328 4.03733 11.28 3.808 11.184 3.808C11.1733 3.808 11.1573 3.81333 11.136 3.824C11.1147 3.83467 11.0933 3.85067 11.072 3.872C11.0613 3.89333 11.0453 3.91467 11.024 3.936C11.0027 3.95733 10.9813 3.99467 10.96 4.048C10.9387 4.09067 10.9173 4.128 10.896 4.16C10.8747 4.192 10.848 4.24 10.816 4.304C10.784 4.35733 10.7573 4.40533 10.736 4.448C10.7147 4.49067 10.6827 4.54933 10.64 4.624C10.608 4.69867 10.5813 4.76267 10.56 4.816L8.336 9.312C8.08 9.83467 7.808 10.3947 7.52 10.992C7.328 11.3973 7.21067 11.6373 7.168 11.712C7.12533 11.776 7.072 11.808 7.008 11.808C6.912 11.808 6.832 11.7653 6.768 11.68C6.704 11.584 6.608 11.3813 6.48 11.072C6.352 10.7627 6.24 10.5067 6.144 10.304C4.192 6.336 3.18933 4.31467 3.136 4.24C3.104 4.19733 3.072 4.176 3.04 4.176C2.95467 4.176 2.912 4.38933 2.912 4.816C2.90133 5.648 2.87467 6.46933 2.832 7.28C2.78933 8.09067 2.768 8.67733 2.768 9.04V9.76C2.768 10.0373 2.77333 10.2507 2.784 10.4C2.80533 10.5493 2.848 10.7253 2.912 10.928C2.98667 11.12 3.11467 11.2693 3.296 11.376C3.47733 11.4827 3.712 11.552 4 11.584C4.05333 11.584 4.10133 11.6053 4.144 11.648C4.19733 11.68 4.224 11.7173 4.224 11.76C4.224 11.8773 4.208 11.9573 4.176 12C4.144 12.032 4.08 12.048 3.984 12.048C3.77067 12.048 3.45067 12.0373 3.024 12.016C2.59733 11.9947 2.36267 11.984 2.32 11.984C2.29867 11.984 2.144 11.9893 1.856 12C1.568 12.0213 1.28533 12.032 1.008 12.032C0.922667 12.032 0.858667 12.0267 0.816 12.016C0.784 12.0053 0.752 11.984 0.72 11.952C0.688 11.9093 0.672 11.8507 0.672 11.776C0.672 11.6907 0.72 11.632 0.816 11.6C0.912 11.568 1.01867 11.552 1.136 11.552C1.264 11.5413 1.40267 11.456 1.552 11.296C1.70133 11.1253 1.81333 10.88 1.888 10.56C1.94133 10.3253 2.00533 9.39733 2.08 7.776C2.15467 6.15467 2.192 4.95467 2.192 4.176C2.192 3.10933 2.08533 2.37333 1.872 1.968C1.66933 1.56267 1.22133 1.28 0.528 1.12C0.389333 1.088 0.32 1.008 0.32 0.879999ZM15.4711 10.64C15.4711 10.256 15.5511 9.936 15.7111 9.68C15.8711 9.41333 16.1111 9.21067 16.4311 9.072C16.7618 8.92267 17.1031 8.80533 17.4551 8.72C17.8071 8.63467 18.2338 8.54933 18.7351 8.464C18.7991 8.45333 18.8471 8.448 18.8791 8.448C18.9111 8.43733 18.9538 8.432 19.0071 8.432C19.0605 8.42133 19.1085 8.41067 19.1511 8.4C19.2258 8.38933 19.2738 8.37867 19.2951 8.368C19.3271 8.35733 19.3538 8.336 19.3751 8.304C19.4071 8.26133 19.4231 8.208 19.4231 8.144C19.4231 8.03733 19.4285 7.89333 19.4391 7.712C19.4498 7.52 19.4551 7.38667 19.4551 7.312C19.4551 6.704 19.2791 6.26667 18.9271 6C18.5751 5.72267 18.2338 5.584 17.9031 5.584C17.1351 5.584 16.7511 5.904 16.7511 6.544C16.7511 6.62933 16.7618 6.736 16.7831 6.864C16.8045 6.992 16.8151 7.07733 16.8151 7.12C16.8151 7.33333 16.7191 7.44 16.5271 7.44C16.4631 7.44 16.3831 7.43467 16.2871 7.424C16.1911 7.40267 16.0791 7.376 15.9511 7.344C15.8338 7.30133 15.7325 7.23733 15.6471 7.152C15.5725 7.056 15.5351 6.944 15.5351 6.816C15.5351 6.4 15.8125 6.00533 16.3671 5.632C16.9325 5.248 17.5511 5.056 18.2231 5.056C18.6818 5.056 19.0711 5.10933 19.3911 5.216C19.7111 5.32267 19.9458 5.44533 20.0951 5.584C20.2551 5.712 20.3778 5.888 20.4631 6.112C20.5485 6.32533 20.5965 6.496 20.6071 6.624C20.6178 6.74133 20.6231 6.89067 20.6231 7.072C20.6231 7.84 20.6071 8.448 20.5751 8.896C20.5538 9.33333 20.5431 9.71733 20.5431 10.048C20.5431 10.4427 20.5858 10.7573 20.6711 10.992C20.7565 11.216 20.8578 11.36 20.9751 11.424C21.0925 11.488 21.2098 11.5253 21.3271 11.536C21.4445 11.5467 21.5458 11.568 21.6311 11.6C21.7165 11.632 21.7591 11.696 21.7591 11.792C21.7591 12.016 21.4231 12.128 20.7511 12.128C20.4738 12.128 20.2338 12.0533 20.0311 11.904C19.8391 11.7547 19.7005 11.6107 19.6151 11.472C19.5298 11.3227 19.4818 11.248 19.4711 11.248C19.4605 11.248 19.4178 11.2853 19.3431 11.36C19.2685 11.424 19.1618 11.504 19.0231 11.6C18.8951 11.696 18.7458 11.792 18.5751 11.888C18.4151 11.984 18.2231 12.064 17.9991 12.128C17.7858 12.2027 17.5725 12.24 17.3591 12.24C16.6765 12.24 16.1805 12.08 15.8711 11.76C15.6045 11.4933 15.4711 11.12 15.4711 10.64ZM16.7191 10.4C16.7191 10.7627 16.8258 11.056 17.0391 11.28C17.2525 11.4933 17.5565 11.6 17.9511 11.6C18.2285 11.6 18.4631 11.5573 18.6551 11.472C18.8578 11.3867 19.0071 11.2907 19.1031 11.184C19.1991 11.0773 19.2738 10.9387 19.3271 10.768C19.3805 10.5867 19.4071 10.448 19.4071 10.352C19.4178 10.256 19.4231 10.128 19.4231 9.968V8.816C19.4231 8.72 19.3858 8.672 19.3111 8.672C19.2898 8.672 19.2631 8.67733 19.2311 8.688C19.1991 8.69867 19.1725 8.704 19.1511 8.704C18.9058 8.74667 18.7511 8.77333 18.6871 8.784C18.6231 8.79467 18.4738 8.82667 18.2391 8.88C18.0045 8.93333 17.8391 8.98133 17.7431 9.024C17.6578 9.06667 17.5298 9.136 17.3591 9.232C17.1991 9.31733 17.0818 9.41333 17.0071 9.52C16.9431 9.616 16.8791 9.744 16.8151 9.904C16.7511 10.0533 16.7191 10.2187 16.7191 10.4ZM22.9581 11.312V9.92C22.9581 9.80267 22.9795 9.70667 23.0221 9.632C23.0755 9.54667 23.1341 9.504 23.1981 9.504C23.3048 9.504 23.3741 9.53067 23.4061 9.584C23.4488 9.62667 23.4861 9.72267 23.5181 9.872C23.5501 10.0213 23.5821 10.128 23.6141 10.192C24.0088 11.1733 24.5635 11.664 25.2781 11.664C25.6088 11.664 25.9235 11.5787 26.2221 11.408C26.5208 11.2267 26.6701 10.9333 26.6701 10.528C26.6701 10.176 26.5475 9.88267 26.3021 9.648C26.0568 9.41333 25.7581 9.232 25.4061 9.104C25.0541 8.96533 24.7021 8.82667 24.3501 8.688C23.9981 8.53867 23.6995 8.32533 23.4541 8.048C23.2088 7.76 23.0861 7.40267 23.0861 6.976C23.0861 6.37867 23.3261 5.89867 23.8061 5.536C24.2861 5.17333 24.8515 4.992 25.5021 4.992C26.0035 4.992 26.4035 5.04 26.7021 5.136C27.0008 5.22133 27.1768 5.30133 27.2301 5.376C27.2941 5.45067 27.3261 5.52 27.3261 5.584C27.3261 5.59467 27.3368 5.73867 27.3581 6.016C27.3795 6.29333 27.3901 6.46933 27.3901 6.544C27.3901 6.72533 27.3688 6.848 27.3261 6.912C27.2835 6.976 27.2088 7.008 27.1021 7.008C27.0488 7.008 26.9741 6.93333 26.8781 6.784C26.7928 6.624 26.6915 6.45333 26.5741 6.272C26.4675 6.09067 26.2861 5.92533 26.0301 5.776C25.7848 5.616 25.4968 5.536 25.1661 5.536C24.8568 5.536 24.6008 5.616 24.3981 5.776C24.1955 5.92533 24.0941 6.11733 24.0941 6.352C24.0941 6.48 24.1101 6.60267 24.1421 6.72C24.1741 6.82667 24.2275 6.92267 24.3021 7.008C24.3875 7.09333 24.4568 7.168 24.5101 7.232C24.5741 7.28533 24.6755 7.344 24.8141 7.408C24.9528 7.472 25.0541 7.52 25.1181 7.552C25.1928 7.57333 25.3101 7.616 25.4701 7.68C25.6408 7.73333 25.7528 7.77067 25.8061 7.792C26.5741 8.08 27.0915 8.384 27.3581 8.704C27.6248 9.01333 27.7581 9.47733 27.7581 10.096C27.7581 10.6933 27.4755 11.248 26.9101 11.76C26.5261 12.0907 25.9981 12.256 25.3261 12.256C25.1341 12.256 24.9315 12.2347 24.7181 12.192C24.5048 12.1493 24.3341 12.1067 24.2061 12.064C24.0888 12.032 23.9501 11.984 23.7901 11.92C23.6301 11.856 23.5448 11.824 23.5341 11.824C23.4915 11.8133 23.4381 11.7973 23.3741 11.776C23.3208 11.7547 23.2781 11.744 23.2461 11.744C23.2248 11.7333 23.1928 11.7173 23.1501 11.696C23.1075 11.6747 23.0755 11.6587 23.0541 11.648C23.0435 11.6267 23.0275 11.6 23.0061 11.568C22.9848 11.536 22.9688 11.4987 22.9581 11.456C22.9581 11.4133 22.9581 11.3653 22.9581 11.312ZM29.0634 6.736C29.0634 5.57333 29.2927 4.528 29.7514 3.6C30.2207 2.672 30.9354 1.92533 31.8954 1.36C32.8554 0.783999 33.9967 0.495999 35.3194 0.495999C35.8314 0.495999 36.3114 0.538666 36.7594 0.624C37.2074 0.698666 37.5754 0.789333 37.8634 0.896C38.1514 1.00267 38.402 1.11467 38.6154 1.232C38.8287 1.33867 38.9887 1.43467 39.0954 1.52C39.2127 1.59467 39.282 1.632 39.3034 1.632C39.3354 1.632 39.4047 1.59467 39.5114 1.52C39.6287 1.43467 39.7087 1.392 39.7514 1.392C39.9114 1.392 39.9914 1.49867 39.9914 1.712C40.002 2.02133 40.0234 2.34667 40.0554 2.688C40.098 3.02933 40.1354 3.312 40.1674 3.536C40.1994 3.76 40.2154 3.89333 40.2154 3.936C40.2154 4.11733 40.1514 4.208 40.0234 4.208C39.8954 4.208 39.8047 4.144 39.7514 4.016C39.378 3.20533 38.754 2.52267 37.8794 1.968C37.0047 1.40267 36.1034 1.12 35.1754 1.12C33.842 1.12 32.738 1.54133 31.8634 2.384C30.9994 3.216 30.5674 4.37333 30.5674 5.856C30.5674 6.83733 30.7487 7.76 31.1114 8.624C31.474 9.488 32.0234 10.2027 32.7594 10.768C33.506 11.3333 34.3594 11.616 35.3194 11.616C36.1407 11.616 36.882 11.4293 37.5434 11.056C38.2154 10.6827 38.5887 10.256 38.6634 9.776C38.6954 9.52 38.7114 8.848 38.7114 7.76C38.7114 7.344 38.6207 7.04533 38.4394 6.864C38.3114 6.736 38.0767 6.65067 37.7354 6.608C37.4154 6.576 37.2287 6.512 37.1754 6.416C37.154 6.37333 37.1434 6.32 37.1434 6.256C37.1434 6.13867 37.2394 6.08 37.4314 6.08C37.57 6.08 37.8687 6.096 38.3274 6.128C38.786 6.14933 39.0794 6.16 39.2074 6.16C39.4207 6.16 39.65 6.16 39.8954 6.16C40.1407 6.14933 40.338 6.144 40.4874 6.144H40.7274C40.898 6.144 40.9834 6.192 40.9834 6.288C40.9834 6.36267 40.8447 6.45867 40.5674 6.576C40.3007 6.69333 40.1514 6.84267 40.1194 7.024C40.0447 7.48267 40.0074 8.08 40.0074 8.816C40.0074 9.136 40.0127 9.41867 40.0234 9.664C40.034 9.90933 40.0394 10.0853 40.0394 10.192C40.05 10.288 40.0607 10.3733 40.0714 10.448C40.082 10.5227 40.0874 10.576 40.0874 10.608C40.0874 10.6613 40.0447 10.704 39.9594 10.736C39.8847 10.7573 39.7567 10.7947 39.5754 10.848C39.394 10.8907 39.2287 10.9547 39.0794 11.04L38.9674 11.104C38.8927 11.1573 38.818 11.2053 38.7434 11.248C38.6687 11.2907 38.5674 11.344 38.4394 11.408C38.322 11.472 38.1994 11.536 38.0714 11.6C37.9434 11.664 37.7994 11.7333 37.6394 11.808C37.4794 11.872 37.314 11.9307 37.1434 11.984C36.9727 12.0373 36.7967 12.0853 36.6154 12.128C36.434 12.1707 36.242 12.2027 36.0394 12.224C35.8474 12.256 35.6554 12.272 35.4634 12.272C34.3007 12.272 33.2874 12.1173 32.4234 11.808C31.57 11.488 30.9087 11.0613 30.4394 10.528C29.97 9.984 29.6234 9.39733 29.3994 8.768C29.1754 8.13867 29.0634 7.46133 29.0634 6.736ZM42.2211 10.64C42.2211 10.256 42.3011 9.936 42.4611 9.68C42.6211 9.41333 42.8611 9.21067 43.1811 9.072C43.5118 8.92267 43.8531 8.80533 44.2051 8.72C44.5571 8.63467 44.9838 8.54933 45.4851 8.464C45.5491 8.45333 45.5971 8.448 45.6291 8.448C45.6611 8.43733 45.7038 8.432 45.7571 8.432C45.8105 8.42133 45.8585 8.41067 45.9011 8.4C45.9758 8.38933 46.0238 8.37867 46.0451 8.368C46.0771 8.35733 46.1038 8.336 46.1251 8.304C46.1571 8.26133 46.1731 8.208 46.1731 8.144C46.1731 8.03733 46.1785 7.89333 46.1891 7.712C46.1998 7.52 46.2051 7.38667 46.2051 7.312C46.2051 6.704 46.0291 6.26667 45.6771 6C45.3251 5.72267 44.9838 5.584 44.6531 5.584C43.8851 5.584 43.5011 5.904 43.5011 6.544C43.5011 6.62933 43.5118 6.736 43.5331 6.864C43.5545 6.992 43.5651 7.07733 43.5651 7.12C43.5651 7.33333 43.4691 7.44 43.2771 7.44C43.2131 7.44 43.1331 7.43467 43.0371 7.424C42.9411 7.40267 42.8291 7.376 42.7011 7.344C42.5838 7.30133 42.4825 7.23733 42.3971 7.152C42.3225 7.056 42.2851 6.944 42.2851 6.816C42.2851 6.4 42.5625 6.00533 43.1171 5.632C43.6825 5.248 44.3011 5.056 44.9731 5.056C45.4318 5.056 45.8211 5.10933 46.1411 5.216C46.4611 5.32267 46.6958 5.44533 46.8451 5.584C47.0051 5.712 47.1278 5.888 47.2131 6.112C47.2985 6.32533 47.3465 6.496 47.3571 6.624C47.3678 6.74133 47.3731 6.89067 47.3731 7.072C47.3731 7.84 47.3571 8.448 47.3251 8.896C47.3038 9.33333 47.2931 9.71733 47.2931 10.048C47.2931 10.4427 47.3358 10.7573 47.4211 10.992C47.5065 11.216 47.6078 11.36 47.7251 11.424C47.8425 11.488 47.9598 11.5253 48.0771 11.536C48.1945 11.5467 48.2958 11.568 48.3811 11.6C48.4665 11.632 48.5091 11.696 48.5091 11.792C48.5091 12.016 48.1731 12.128 47.5011 12.128C47.2238 12.128 46.9838 12.0533 46.7811 11.904C46.5891 11.7547 46.4505 11.6107 46.3651 11.472C46.2798 11.3227 46.2318 11.248 46.2211 11.248C46.2105 11.248 46.1678 11.2853 46.0931 11.36C46.0185 11.424 45.9118 11.504 45.7731 11.6C45.6451 11.696 45.4958 11.792 45.3251 11.888C45.1651 11.984 44.9731 12.064 44.7491 12.128C44.5358 12.2027 44.3225 12.24 44.1091 12.24C43.4265 12.24 42.9305 12.08 42.6211 11.76C42.3545 11.4933 42.2211 11.12 42.2211 10.64ZM43.4691 10.4C43.4691 10.7627 43.5758 11.056 43.7891 11.28C44.0025 11.4933 44.3065 11.6 44.7011 11.6C44.9785 11.6 45.2131 11.5573 45.4051 11.472C45.6078 11.3867 45.7571 11.2907 45.8531 11.184C45.9491 11.0773 46.0238 10.9387 46.0771 10.768C46.1305 10.5867 46.1571 10.448 46.1571 10.352C46.1678 10.256 46.1731 10.128 46.1731 9.968V8.816C46.1731 8.72 46.1358 8.672 46.0611 8.672C46.0398 8.672 46.0131 8.67733 45.9811 8.688C45.9491 8.69867 45.9225 8.704 45.9011 8.704C45.6558 8.74667 45.5011 8.77333 45.4371 8.784C45.3731 8.79467 45.2238 8.82667 44.9891 8.88C44.7545 8.93333 44.5891 8.98133 44.4931 9.024C44.4078 9.06667 44.2798 9.136 44.1091 9.232C43.9491 9.31733 43.8318 9.41333 43.7571 9.52C43.6931 9.616 43.6291 9.744 43.5651 9.904C43.5011 10.0533 43.4691 10.2187 43.4691 10.4ZM49.3241 5.76C49.3241 5.696 49.3561 5.648 49.4201 5.616C49.4948 5.584 49.6121 5.55733 49.7721 5.536C49.9321 5.51467 50.0441 5.49333 50.1081 5.472C50.3108 5.41867 50.5188 5.34933 50.7321 5.264C50.9561 5.168 51.1321 5.088 51.2601 5.024C51.3988 4.96 51.4895 4.928 51.5321 4.928H51.5641C51.6601 4.928 51.7081 4.992 51.7081 5.12C51.7081 5.14133 51.7028 5.23733 51.6921 5.408C51.6815 5.57867 51.6761 5.712 51.6761 5.808C51.6761 6.08533 51.7028 6.224 51.7561 6.224C51.7881 6.224 51.8255 6.19733 51.8681 6.144C51.9108 6.08 51.9855 5.99467 52.0921 5.888C52.2095 5.77067 52.3481 5.664 52.5081 5.568C52.9881 5.26933 53.4521 5.12 53.9001 5.12C54.3268 5.12 54.7108 5.18933 55.0521 5.328C55.3935 5.456 55.6601 5.62133 55.8521 5.824C56.0441 6.016 56.2041 6.24 56.3321 6.496C56.4601 6.752 56.5455 6.98667 56.5881 7.2C56.6308 7.41333 56.6521 7.616 56.6521 7.808C56.6521 7.85067 56.6521 7.904 56.6521 7.968C56.6521 8.02133 56.6521 8.096 56.6521 8.192C56.6628 8.27733 56.6681 8.48533 56.6681 8.816C56.6681 9.14667 56.6681 9.57333 56.6681 10.096V10.448C56.6681 10.8533 56.7215 11.136 56.8281 11.296C56.9455 11.4453 57.2175 11.552 57.6441 11.616C57.8575 11.648 57.9641 11.728 57.9641 11.856C57.9641 11.9627 57.8575 12.016 57.6441 12.016C57.3988 12.016 57.1428 12.0053 56.8761 11.984C56.6095 11.952 56.4281 11.936 56.3321 11.936C56.1828 11.936 55.9481 11.9467 55.6281 11.968C55.3188 11.9893 55.1428 12 55.1001 12C54.8868 12 54.7801 11.9307 54.7801 11.792C54.7801 11.7387 54.7961 11.696 54.8281 11.664C54.8708 11.632 54.9135 11.6107 54.9561 11.6C55.0095 11.5893 55.0575 11.5787 55.1001 11.568L55.1801 11.552C55.4148 11.4773 55.5321 11.12 55.5321 10.48V8.32C55.5321 7.49867 55.3295 6.88 54.9241 6.464C54.5188 6.03733 54.0335 5.824 53.4681 5.824C53.0095 5.824 52.6095 5.94667 52.2681 6.192C51.9268 6.43733 51.7295 6.64 51.6761 6.8C51.5801 7.06667 51.5321 7.90933 51.5321 9.328V9.936C51.5321 10.4693 51.5855 10.864 51.6921 11.12C51.8095 11.376 52.0601 11.52 52.4441 11.552C52.5508 11.552 52.6841 11.5733 52.8441 11.616C53.0148 11.648 53.1001 11.7067 53.1001 11.792C53.1001 11.9307 52.9988 12 52.7961 12C52.6148 12 52.4388 11.9893 52.2681 11.968C52.0975 11.9467 51.8841 11.936 51.6281 11.936C51.3508 11.936 50.9828 11.9467 50.5241 11.968L49.8361 12C49.6761 12 49.5961 11.9467 49.5961 11.84C49.5961 11.7547 49.6228 11.7013 49.6761 11.68C49.7295 11.6587 49.7935 11.6427 49.8681 11.632C49.9535 11.6213 50.0335 11.5893 50.1081 11.536C50.1935 11.4827 50.2681 11.3547 50.3321 11.152C50.3961 10.9387 50.4335 10.656 50.4441 10.304C50.4655 9.70667 50.4761 9.30667 50.4761 9.104V6.8C50.4761 6.45867 50.4121 6.22933 50.2841 6.112C50.1668 5.99467 50.0015 5.936 49.7881 5.936H49.6281C49.4255 5.936 49.3241 5.87733 49.3241 5.76ZM58.557 5.856C58.557 5.792 58.573 5.73867 58.605 5.696C58.6477 5.64267 58.701 5.59467 58.765 5.552C58.829 5.50933 58.9197 5.44 59.037 5.344C59.165 5.23733 59.2877 5.12 59.405 4.992C59.565 4.82133 59.7303 4.61867 59.901 4.384C60.0823 4.13867 60.221 3.96267 60.317 3.856C60.4237 3.73867 60.525 3.68 60.621 3.68C60.7383 3.68 60.797 3.80267 60.797 4.048C60.797 4.144 60.7863 4.29333 60.765 4.496C60.7437 4.69867 60.733 4.85333 60.733 4.96C60.733 5.10933 60.7597 5.2 60.813 5.232C60.877 5.264 61.069 5.28 61.389 5.28H61.949C62.1837 5.28 62.381 5.26933 62.541 5.248C62.7117 5.22667 62.829 5.2 62.893 5.168C62.957 5.136 63.0103 5.10933 63.053 5.088C63.1063 5.06667 63.149 5.056 63.181 5.056C63.2877 5.056 63.341 5.11467 63.341 5.232C63.341 5.31733 63.2717 5.488 63.133 5.744C62.9943 5.98933 62.893 6.112 62.829 6.112C62.669 6.112 62.5143 6.112 62.365 6.112C62.2157 6.10133 62.0877 6.096 61.981 6.096C61.8743 6.08533 61.773 6.07467 61.677 6.064C61.581 6.05333 61.501 6.048 61.437 6.048C61.373 6.03733 61.3143 6.032 61.261 6.032C61.2183 6.02133 61.1863 6.016 61.165 6.016L61.133 6C60.9303 6 60.797 6.032 60.733 6.096C60.6797 6.16 60.653 6.304 60.653 6.528C60.653 6.64533 60.6423 7.09333 60.621 7.872C60.5997 8.64 60.589 9.184 60.589 9.504C60.589 10.1973 60.6743 10.6827 60.845 10.96C61.0263 11.2267 61.3997 11.36 61.965 11.36C62.189 11.36 62.4343 11.312 62.701 11.216C62.9783 11.1093 63.1277 11.056 63.149 11.056C63.2557 11.056 63.309 11.12 63.309 11.248C63.309 11.3973 63.1223 11.5893 62.749 11.824C62.3863 12.048 61.9917 12.16 61.565 12.16C60.125 12.16 59.405 11.536 59.405 10.288V10.048C59.405 9.632 59.4103 9.12533 59.421 8.528C59.4317 7.93067 59.4423 7.41867 59.453 6.992C59.4637 6.55467 59.469 6.33067 59.469 6.32C59.469 6.21333 59.4477 6.144 59.405 6.112C59.3623 6.08 59.2717 6.064 59.133 6.064C59.0903 6.064 59.0317 6.06933 58.957 6.08C58.893 6.08 58.8503 6.08 58.829 6.08C58.6477 6.08 58.557 6.00533 58.557 5.856ZM64.2178 8.896C64.2178 7.82933 64.5164 6.928 65.1138 6.192C65.7218 5.456 66.5058 5.088 67.4658 5.088C67.9138 5.088 68.3191 5.168 68.6818 5.328C69.0551 5.488 69.3431 5.68533 69.5458 5.92C69.7484 6.144 69.9191 6.384 70.0578 6.64C70.1964 6.896 70.2871 7.10933 70.3298 7.28C70.3831 7.44 70.4098 7.55733 70.4098 7.632C70.4098 7.824 70.1911 7.92 69.7538 7.92H66.1218H65.6418C65.5564 7.92 65.5031 7.93067 65.4818 7.952C65.4711 7.96267 65.4658 8.01067 65.4658 8.096C65.4658 9.09867 65.7324 9.888 66.2658 10.464C66.8098 11.04 67.4444 11.328 68.1698 11.328C68.6178 11.328 69.0711 11.2107 69.5298 10.976C69.9991 10.7307 70.2444 10.608 70.2658 10.608C70.3724 10.608 70.4258 10.656 70.4258 10.752C70.4258 10.7947 70.3884 10.8747 70.3138 10.992C70.2391 11.0987 70.1218 11.2267 69.9618 11.376C69.8018 11.5253 69.6151 11.6693 69.4018 11.808C69.1884 11.9467 68.9218 12.064 68.6018 12.16C68.2818 12.256 67.9458 12.304 67.5938 12.304C66.6551 12.304 65.8551 12.016 65.1938 11.44C64.5431 10.864 64.2178 10.016 64.2178 8.896ZM65.5618 7.312C65.5618 7.46133 65.6311 7.536 65.7698 7.536C66.0578 7.536 66.5858 7.52 67.3538 7.488C68.1218 7.456 68.5324 7.44 68.5858 7.44C68.7351 7.44 68.8258 7.42933 68.8578 7.408C68.9004 7.376 68.9218 7.32267 68.9218 7.248C68.9218 6.928 68.7724 6.55467 68.4738 6.128C68.1751 5.70133 67.7484 5.488 67.1938 5.488C66.6818 5.488 66.2818 5.70133 65.9938 6.128C65.7058 6.544 65.5618 6.93867 65.5618 7.312ZM71.5429 5.76C71.5429 5.696 71.5749 5.648 71.6389 5.616C71.7135 5.584 71.8309 5.55733 71.9909 5.536C72.1509 5.51467 72.2629 5.49333 72.3269 5.472C72.5295 5.41867 72.7375 5.34933 72.9509 5.264C73.1749 5.168 73.3509 5.088 73.4789 5.024C73.6175 4.96 73.7082 4.928 73.7509 4.928H73.7829C73.8789 4.928 73.9269 4.992 73.9269 5.12C73.9269 5.14133 73.9215 5.23733 73.9109 5.408C73.9002 5.57867 73.8949 5.712 73.8949 5.808C73.8949 6.08533 73.9215 6.224 73.9749 6.224C74.0069 6.224 74.0442 6.19733 74.0869 6.144C74.1295 6.08 74.2042 5.99467 74.3109 5.888C74.4282 5.77067 74.5669 5.664 74.7269 5.568C75.2069 5.26933 75.6709 5.12 76.1189 5.12C76.5455 5.12 76.9295 5.18933 77.2709 5.328C77.6122 5.456 77.8789 5.62133 78.0709 5.824C78.2629 6.016 78.4229 6.24 78.5509 6.496C78.6789 6.752 78.7642 6.98667 78.8069 7.2C78.8495 7.41333 78.8709 7.616 78.8709 7.808C78.8709 7.85067 78.8709 7.904 78.8709 7.968C78.8709 8.02133 78.8709 8.096 78.8709 8.192C78.8815 8.27733 78.8869 8.48533 78.8869 8.816C78.8869 9.14667 78.8869 9.57333 78.8869 10.096V10.448C78.8869 10.8533 78.9402 11.136 79.0469 11.296C79.1642 11.4453 79.4362 11.552 79.8629 11.616C80.0762 11.648 80.1829 11.728 80.1829 11.856C80.1829 11.9627 80.0762 12.016 79.8629 12.016C79.6175 12.016 79.3615 12.0053 79.0949 11.984C78.8282 11.952 78.6469 11.936 78.5509 11.936C78.4015 11.936 78.1669 11.9467 77.8469 11.968C77.5375 11.9893 77.3615 12 77.3189 12C77.1055 12 76.9989 11.9307 76.9989 11.792C76.9989 11.7387 77.0149 11.696 77.0469 11.664C77.0895 11.632 77.1322 11.6107 77.1749 11.6C77.2282 11.5893 77.2762 11.5787 77.3189 11.568L77.3989 11.552C77.6335 11.4773 77.7509 11.12 77.7509 10.48V8.32C77.7509 7.49867 77.5482 6.88 77.1429 6.464C76.7375 6.03733 76.2522 5.824 75.6869 5.824C75.2282 5.824 74.8282 5.94667 74.4869 6.192C74.1455 6.43733 73.9482 6.64 73.8949 6.8C73.7989 7.06667 73.7509 7.90933 73.7509 9.328V9.936C73.7509 10.4693 73.8042 10.864 73.9109 11.12C74.0282 11.376 74.2789 11.52 74.6629 11.552C74.7695 11.552 74.9029 11.5733 75.0629 11.616C75.2335 11.648 75.3189 11.7067 75.3189 11.792C75.3189 11.9307 75.2175 12 75.0149 12C74.8335 12 74.6575 11.9893 74.4869 11.968C74.3162 11.9467 74.1029 11.936 73.8469 11.936C73.5695 11.936 73.2015 11.9467 72.7429 11.968L72.0549 12C71.8949 12 71.8149 11.9467 71.8149 11.84C71.8149 11.7547 71.8415 11.7013 71.8949 11.68C71.9482 11.6587 72.0122 11.6427 72.0869 11.632C72.1722 11.6213 72.2522 11.5893 72.3269 11.536C72.4122 11.4827 72.4869 11.3547 72.5509 11.152C72.6149 10.9387 72.6522 10.656 72.6629 10.304C72.6842 9.70667 72.6949 9.30667 72.6949 9.104V6.8C72.6949 6.45867 72.6309 6.22933 72.5029 6.112C72.3855 5.99467 72.2202 5.936 72.0069 5.936H71.8469C71.6442 5.936 71.5429 5.87733 71.5429 5.76ZM80.9678 13.552C80.9678 13.264 81.0638 13.0187 81.2558 12.816C81.4478 12.624 81.6398 12.48 81.8318 12.384C82.0238 12.288 82.1198 12.224 82.1198 12.192C82.1198 12.1707 82.0931 12.1387 82.0398 12.096C81.9864 12.0533 81.9224 12.0053 81.8478 11.952C81.7838 11.8987 81.7251 11.808 81.6718 11.68C81.6184 11.552 81.5918 11.408 81.5918 11.248C81.5918 10.928 81.6611 10.6507 81.7998 10.416C81.9384 10.1813 82.0771 10.0053 82.2158 9.888C82.3544 9.77067 82.4238 9.696 82.4238 9.664C82.4238 9.62133 82.3651 9.552 82.2478 9.456C82.1411 9.36 82.0184 9.25333 81.8798 9.136C81.7411 9.008 81.6131 8.80533 81.4958 8.528C81.3891 8.24 81.3358 7.904 81.3358 7.52C81.3358 7.27467 81.3731 7.02933 81.4478 6.784C81.5331 6.528 81.6664 6.26667 81.8478 6C82.0398 5.72267 82.3278 5.49867 82.7118 5.328C83.1064 5.15733 83.5704 5.072 84.1038 5.072C84.5198 5.072 84.8771 5.12533 85.1758 5.232C85.4744 5.33867 85.6931 5.44533 85.8318 5.552C85.9811 5.65867 86.0771 5.712 86.1198 5.712C86.2051 5.712 86.4771 5.616 86.9358 5.424C87.0851 5.36 87.1971 5.216 87.2718 4.992C87.3464 4.768 87.4264 4.656 87.5118 4.656C87.6504 4.656 87.7198 4.69867 87.7198 4.784C87.7198 5.04 87.6824 5.31733 87.6078 5.616C87.5331 5.904 87.4531 6.112 87.3678 6.24C87.2398 6.44267 87.0211 6.608 86.7118 6.736C86.8291 7.056 86.8878 7.32267 86.8878 7.536C86.8878 8.21867 86.6318 8.79467 86.1198 9.264C85.6078 9.73333 84.9838 9.968 84.2478 9.968C83.9704 9.968 83.7038 9.94667 83.4478 9.904C83.2024 9.85067 83.0584 9.824 83.0158 9.824C82.9624 9.824 82.8931 9.83467 82.8078 9.856C82.7224 9.87733 82.6158 9.952 82.4878 10.08C82.3598 10.208 82.2958 10.384 82.2958 10.608C82.2958 10.9707 82.4611 11.2 82.7918 11.296C83.1224 11.392 83.6718 11.44 84.4398 11.44H85.1758C86.7224 11.44 87.4958 11.9093 87.4958 12.848C87.4958 13.1787 87.4584 13.4293 87.3838 13.6C87.1811 14.1227 86.7651 14.5387 86.1358 14.848C85.5064 15.1573 84.7758 15.312 83.9438 15.312C83.4638 15.312 83.0158 15.264 82.5998 15.168C82.1838 15.0827 81.8051 14.9013 81.4638 14.624C81.1331 14.3467 80.9678 13.9893 80.9678 13.552ZM81.8958 13.456C81.8958 13.9253 82.0931 14.2773 82.4878 14.512C82.8824 14.7573 83.3678 14.88 83.9438 14.88C84.6051 14.88 85.1971 14.7413 85.7198 14.464C86.2531 14.1973 86.5198 13.8507 86.5198 13.424C86.5198 13.232 86.4771 13.0773 86.3918 12.96C86.3064 12.8427 86.1624 12.7573 85.9598 12.704C85.7571 12.6613 85.5758 12.6347 85.4158 12.624C85.2664 12.6133 85.0424 12.608 84.7438 12.608H84.5998C84.2584 12.608 83.8424 12.5707 83.3518 12.496L82.6318 12.384C82.5251 12.384 82.3758 12.4907 82.1838 12.704C81.9918 12.9173 81.8958 13.168 81.8958 13.456ZM82.5518 7.36C82.5518 8 82.7011 8.53333 82.9998 8.96C83.3091 9.38667 83.6931 9.6 84.1518 9.6C84.6318 9.6 84.9998 9.41867 85.2558 9.056C85.5118 8.68267 85.6398 8.22933 85.6398 7.696C85.6398 7.09867 85.4904 6.57067 85.1918 6.112C84.8931 5.65333 84.4878 5.424 83.9758 5.424C83.5811 5.424 83.2451 5.59467 82.9678 5.936C82.6904 6.26667 82.5518 6.74133 82.5518 7.36Z" fill="black"/>
</svg>
